<svg id="fi_3791431" enable-background="new 0 0 509.639 509.639" height="512" viewBox="0 0 509.639 509.639" width="512" xmlns="http://www.w3.org/2000/svg"><g><g><g><g><path d="m349.936 292.826-80.393 15.595 37.773 38.702c18.799-17.49 42.049-29.588 67.227-34.693z" fill="#fbf2e2"></path></g><g><path d="m348.476 293.11c-13.935 6.266-26.82 14.799-38.096 25.29l-14.689-15.05-26.147 5.072 37.773 38.702c18.799-17.49 42.049-29.588 67.227-34.693l-24.607-19.603z" fill="#f7e0ba"></path></g><g><path d="m209.544 312.834-60-3.264c16.741 20.36 30 32.86 90 32.86z" fill="#f7e0ba"></path></g><g><path d="m501.927 225.077v-17.647l-60 44.849c-12.769.292-25.184-.309-37.383-1.521l-45-6.846c-47.791-9.227-94.829-22.574-150-21.481-111.585-.002-202.043 29.998-202.043 44.998s90.458 45 202.043 45c86.063 1.715 152.257-31.694 232.383-30l60 45v-17.647c0-17.07-8.599-32.992-22.873-42.353 14.274-9.361 22.873-25.282 22.873-42.352z" fill="#fbf2e2"></path></g><g><path d="m209.543 222.43c15.644-.31 30.632.543 45.17 2.132v-62.133c-20.385 7.265-25.682 10.822-45.206 25.205-14.965 10.817-29.965 34.795-29.965 34.795 9.671.499 20.293-.019 30.001.001z" fill="#58575b"></path></g><g><path d="m254.714 162.429c-29.218 8.313-62.347 36.625-75.17 60 24.779.525 51.108-1.067 75.17 2.133v-21.212c-8.545-.934-17.251-1.604-26.148-1.943 10.859-7.921 17.102-12.043 26.148-16.045z" fill="#48474a"></path></g><g><g><path d="m404.543 272.971-37.196-5.659c-50.565 9.658-100.255 24.799-157.804 23.652-67.85 0-127.884-11.092-164.523-23.159-10.866 3.58-19.679 7.244-26.022 10.731 27.726 15.243 102.561 33.894 190.544 33.894 86.063 1.715 152.257-31.694 232.383-30l60 45v-17.647c0-1.325-.07-2.639-.172-3.947l-47.227-37.915-8.134 6.571c-12.766.292-29.65-.31-41.849-1.521z" fill="#f7e0ba"></path></g><g><path d="m501.927 225.077v-17.647l-60 44.849c-12.769.292-25.184-.309-37.383-1.521l-45-6.846c-47.791-9.227-94.829-22.574-150-21.481-88.702-.001-164.048 18.956-191.222 34.266 6.388 3.599 15.44 7.4 26.7 11.108 36.635-12.068 96.665-23.163 164.523-23.162 55.171-1.093 102.209 12.255 150 21.481l7.804 1.188c25.054-4.786 50.322-8.231 76.869-7.67l10.311 8.278 47.151-38.093c.147-1.572.247-3.153.247-4.75z" fill="#cfdbfa"></path></g><g><path d="m18.321 256.696c-14.832 8.276-13.789 13.876.678 21.839 6.342-3.487 15.156-7.151 26.022-10.731-11.26-3.708-20.312-7.508-26.7-11.108z" fill="#9eb6f4"></path></g><g><path d="m367.348 267.312 37.196 5.659c12.199 1.211 29.082 1.813 41.851 1.521l8.134-6.571-10.311-8.278c-26.549-.562-51.816 2.884-76.87 7.669z" fill="#cfdbfa"></path></g></g><g><path d="m501.927 225.077v-17.647l-57.71 43.137v33.969l57.71 42.894v-17.647c0-17.07-8.599-32.992-22.873-42.353 14.274-9.362 22.873-25.283 22.873-42.353z" fill="#58575b"></path></g><g><g><path d="m444.217 250.666v33.87l57.71 42.894v-17.647c0-6.604-1.3-13.029-3.705-18.976l-21.852-16.242-11.062-7.135z" fill="#48474a"></path></g></g><g><path d="m142.044 252.429h15v15h-15z" fill="#fff"></path></g><g><path d="m172.044 252.429h15v15h-15z" fill="#fff"></path></g></g></g><g><path d="m509.426 225.077v-32.617l-70.055 52.365c-10.983.157-22.17-.346-34.086-1.53l-1.483 14.926c14.286 1.422 27.354 1.884 40.694 1.502l49.931-37.323c.832 21.84-11.108 34.774-29.049 45.03 17.935 10.251 29.875 23.188 29.049 45l-49.93-37.447c-84.132-2.123-149.861 31.778-234.804 29.949-27.667.001-55.846-1.909-82.707-5.512-.574-33.427-5.511-52.216-10.104-62.537 29.84-4.537 61.653-6.956 92.81-6.954 54.413-.958 98.964 11.762 148.43 21.348l2.844-14.729c-33.228-6.445-64.219-14.315-98.751-18.635v-65.875c-15.67 4.816-31.316 11.088-44.879 20.385l8.326 12.477c6.811-4.544 14.028-8.438 21.553-11.629v43.038c-17.073-1.654-35.91-1.595-53.514-1.174 6.02-8.004 12.922-15.307 20.621-21.747l-9.625-11.504c-11.649 9.698-21.606 21.244-29.793 33.988-50.956 2.474-171.131 19.773-174.904 51.556 2.659 28.92 105.445 45.18 145.76 49.322 19.294 27.221 54.218 35.179 112.065 33.179l-30.55-30.138c13.608-.455 26.748-1.693 39.542-3.426l40.246 41.237c23.267-23.877 52.358-36.157 84.732-41.019l-24.491-19.51c23.576-4.376 47.072-7.491 72.066-7.186l70.056 52.542c-.157-26.646 4.005-55.324-18.292-75 11.595-10.884 18.292-26.112 18.292-42.352zm-493.647 42.352c4.47-4.245 21.872-13.438 58.338-22.248 8.757-2.116 17.872-4.013 27.224-5.71 3.219 5.565 9.689 21.195 10.594 57.732-13.095-2.109-25.785-4.619-37.818-7.526-36.466-8.809-53.868-18.003-58.338-22.248zm152.347 51.162c11.95.772 24.62 1.248 37.914 1.321l14.717 14.519c-28.986-1.679-42.814-7.506-52.631-15.84zm190.003-9.649c-18.383 5.816-35.523 15.262-50.435 27.83l-22.657-23.214c21.559-3.686 41.976-8.337 62.972-12.677z"></path><path d="m390.57 241.537c-4.738-.654-9.569-1.402-14.771-2.286l-2.512 14.789c5.355.909 10.336 1.68 15.229 2.356z"></path><path d="m67.044 260.133h15v15h-15z"></path></g></g></svg>