<svg height="511pt" viewBox="0 -10 511.99976 511" width="511pt" xmlns="http://www.w3.org/2000/svg" id="fi_1857921"><path d="m500.207031 160.601562c5.203125 5.28125 5.796875 13.617188 1.285157 19.503907-15.789063 20.605469-8.871094 33.617187-32.410157 56.8125-26.976562 26.578125-39.992187 13.367187-66.964843 39.941406-26.972657 26.578125-13.957032 39.789063-40.929688 66.363281-26.972656 26.574219-39.988281 13.363282-66.960938 39.9375-26.96875 26.574219-13.953124 39.785156-40.925781 66.363282-23.539062 23.191406-36.449219 16.082031-57.28125 31.558593-5.953125 4.425781-14.277343 3.707031-19.484375-1.574219l-90.90625-92.265624c-6.683594-6.785157-5.433594-18.046876 2.628906-23.121094 18.320313-11.539063 31.007813-7.007813 52.820313-28.5 26.972656-26.574219 13.953125-39.785156 40.925781-66.359375s39.988282-13.363281 66.960938-39.9375c26.972656-26.578125 13.957031-39.789063 40.925781-66.363281 26.976563-26.578126 39.992187-13.367188 66.964844-39.941407 21.816406-21.496093 17.472656-34.246093 29.285156-52.398437 5.195313-7.980469 16.472656-9.066406 23.15625-2.28125zm0 0" fill="#ea4444"></path><path d="m501.492188 180.101562c-15.792969 20.613282-8.875 33.621094-32.410157 56.816407-26.980469 26.574219-39.996093 13.363281-66.964843 39.941406-26.972657 26.574219-13.960938 39.785156-40.933594 66.359375-26.96875 26.574219-39.984375 13.367188-66.957032 39.941406-26.96875 26.574219-13.960937 39.785156-40.929687 66.359375-23.535156 23.195313-36.449219 16.078125-57.28125 31.558594-5.957031 4.425781-14.273437 3.710937-19.476563-1.574219l-13.898437-14.097656c5.195313 3.921875 12.460937 4.09375 17.820313.117188 20.832031-15.480469 33.746093-8.363282 57.28125-31.558594 26.96875-26.574219 13.960937-39.785156 40.929687-66.359375 26.972656-26.578125 39.988281-13.367188 66.957031-39.941407 26.980469-26.574218 13.960938-39.785156 40.933594-66.363281 26.96875-26.574219 39.984375-13.363281 66.964844-39.9375 23.535156-23.195312 16.617187-36.207031 32.410156-56.816406 4.507812-5.882813 3.914062-14.21875-1.292969-19.503906l-77.03125-78.179688c.585938.441407 1.152344.933594 1.683594 1.476563l90.90625 92.257812c5.203125 5.285156 5.796875 13.621094 1.289063 19.503906zm0 0" fill="#d93131"></path><path d="m474.347656 134.359375c-26.976562 26.574219-13.957031 39.785156-40.933594 66.363281-26.972656 26.574219-39.988281 13.363282-66.960937 39.941406-26.972656 26.574219-13.957031 39.785157-40.929687 66.363282-26.972657 26.574218-39.988282 13.363281-66.960938 39.9375-26.972656 26.574218-13.953125 39.785156-40.925781 66.359375-26.972657 26.574219-39.988281 13.363281-66.960938 39.9375l-40.894531-41.507813c26.972656-26.574218 39.988281-13.363281 66.957031-39.9375 26.972657-26.574218 13.957031-39.785156 40.929688-66.359375 26.972656-26.578125 39.988281-13.367187 66.960937-39.9375 26.96875-26.578125 13.953125-39.789062 40.925782-66.363281 26.972656-26.578125 39.992187-13.367188 66.964843-39.941406 26.972657-26.578125 13.957031-39.789063 40.929688-66.363282zm0 0" fill="#fdd79b"></path><path d="m474.351562 134.363281c-26.980468 26.574219-13.960937 39.785157-40.933593 66.359375-26.976563 26.574219-39.996094 13.367188-66.964844 39.941406-26.96875 26.574219-13.960937 39.785157-40.929687 66.359376-26.972657 26.578124-39.988282 13.367187-66.957032 39.941406-26.972656 26.578125-13.960937 39.785156-40.933594 66.363281-26.96875 26.566406-39.984374 13.355469-66.957031 39.929687l-17.722656-17.992187c26.875-26.398437 39.894531-13.28125 66.816406-39.804687 26.96875-26.574219 13.960938-39.785157 40.933594-66.359376 26.96875-26.574218 39.984375-13.367187 66.953125-39.941406 26.972656-26.574218 13.964844-39.785156 40.933594-66.359375 26.96875-26.578125 39.988281-13.367187 66.964844-39.941406 26.96875-26.578125 13.953124-39.785156 40.929687-66.363281l-23.167969-23.515625c.039063-.042969.082032-.082031.128906-.125zm0 0" fill="#fccd7f"></path><path d="m240.273438 35.175781c7.253906 1.539063 12.34375 8.164063 11.824218 15.5625-1.808594 25.894531 11.136719 32.933594 4.289063 65.265625-7.847657 37.046875-25.992188 33.203125-33.839844 70.246094s10.296875 40.886719 2.449219 77.929688c-7.847656 37.039062-25.992188 33.195312-33.839844 70.238281s10.296875 40.886719 2.449219 77.929687c-6.851563 32.328125-21.542969 33.511719-30.386719 57.914063-2.527344 6.972656-9.867188 10.964843-17.121094 9.429687l-126.710937-26.84375c-9.320313-1.972656-14.484375-12.0625-10.558594-20.738281 8.921875-19.730469 22.003906-22.945313 28.347656-52.902344 7.847657-37.039062-10.292969-40.882812-2.445312-77.925781 7.847656-37.042969 25.988281-33.199219 33.835937-70.242188 7.851563-37.042968-10.292968-40.886718-2.445312-77.925781 7.847656-37.046875 25.992187-33.203125 33.839844-70.246093 6.347656-29.960938-4.308594-38.203126-4.460938-59.859376-.070312-9.523437 8.742188-16.648437 18.058594-14.675781zm0 0" fill="#ea4444"></path><path d="m252.097656 50.734375c-1.808594 25.902344 11.132813 32.941406 4.289063 65.269531-7.851563 37.046875-25.996094 33.203125-33.839844 70.246094-7.84375 37.039062 10.289063 40.886719 2.445313 77.929688-7.84375 37.039062-25.988282 33.199218-33.835938 70.238281-7.84375 37.042969 10.292969 40.890625 2.449219 77.933593-6.84375 32.324219-21.546875 33.511719-30.386719 57.910157-2.527344 6.976562-9.863281 10.96875-17.117188 9.425781l-19.367187-4.097656c6.496094.40625 12.652344-3.457032 14.929687-9.726563 8.84375-24.402343 23.542969-25.585937 30.386719-57.914062 7.84375-37.042969-10.292969-40.886719-2.445312-77.929688 7.84375-37.042969 25.988281-33.199219 33.832031-70.242187 7.855469-37.042969-10.289062-40.886719-2.445312-77.929688 7.847656-37.042968 25.988281-33.199218 33.84375-70.246094 6.84375-32.324218-6.101563-39.363281-4.289063-65.269531.515625-7.390625-4.578125-14.015625-11.832031-15.558593l-107.375-22.742188c.730468.042969 1.480468.144531 2.222656.300781l126.707031 26.84375c7.253907 1.539063 12.347657 8.164063 11.828125 15.558594zm0 0" fill="#d93131"></path><path d="m204.226562 27.539062c-7.847656 37.046876 10.296876 40.890626 2.449219 77.933594-7.847656 37.046875-25.992187 33.203125-33.839843 70.246094-7.847657 37.042969 10.296874 40.886719 2.445312 77.929688-7.847656 37.042968-25.988281 33.195312-33.835938 70.238281-7.847656 37.042969 10.292969 40.886719 2.445313 77.929687-7.847656 37.042969-25.988281 33.195313-33.835937 70.238282l-57.003907-12.074219c7.847657-37.042969 25.988281-33.199219 33.835938-70.242188 7.847656-37.039062-10.292969-40.882812-2.445313-77.925781s25.988282-33.199219 33.835938-70.242188c7.851562-37.042968-10.292969-40.886718-2.445313-77.925781 7.847657-37.046875 25.992188-33.203125 33.839844-70.246093 7.847656-37.046876-10.296875-40.890626-2.449219-77.933594zm0 0" fill="#fdd79b"></path><path d="m204.234375 27.542969c-7.855469 37.046875 10.289063 40.886719 2.445313 77.929687-7.851563 37.046875-25.996094 33.203125-33.84375 70.246094-7.84375 37.042969 10.292968 40.890625 2.445312 77.929688-7.84375 37.042968-25.988281 33.199218-33.832031 70.242187-7.84375 37.039063 10.289062 40.886719 2.445312 77.929687-7.851562 37.035157-25.996093 33.191407-33.839843 70.234376l-24.707032-5.234376c7.863282-36.847656 25.957032-33.082031 33.792969-70.050781 7.847656-37.042969-10.289063-40.890625-2.445313-77.929687 7.847657-37.042969 25.992188-33.199219 33.835938-70.242188 7.84375-37.042968-10.292969-40.886718-2.445312-77.929687 7.84375-37.042969 25.988281-33.199219 33.839843-70.246094 7.847657-37.042969-10.296875-40.882813-2.445312-77.929687l-32.292969-6.84375c.003906-.058594.023438-.113282.035156-.179688zm0 0" fill="#fccd7f"></path><path d="m505.546875 155.339844-25.859375-26.246094-40.894531-41.507812-24.152344-24.511719c-4.804687-4.875-11.46875-7.273438-18.28125-6.589844-6.78125.683594-12.800781 4.347656-16.507813 10.046875-5 7.683594-7.34375 14.363281-9.609374 20.820312-3.4375 9.796876-6.402344 18.253907-18.652344 30.324219-12.25 12.070313-20.75 14.910157-30.59375 18.199219-10.144532 3.390625-21.644532 7.234375-36.367188 21.742188-14.726562 14.507812-18.738281 25.949218-22.28125 36.039062-3.433594 9.796875-6.402344 18.253906-18.648437 30.324219-3.8125 3.757812-7.261719 6.613281-10.503907 8.875-.625-3.382813-1.402343-6.488281-2.152343-9.46875-1.6875-6.710938-3.285157-13.046875-2.972657-21.734375.148438-4.140625-3.085937-7.617188-7.226562-7.765625-4.164062-.148438-7.617188 3.085937-7.765625 7.226562-.386719 10.816407 1.546875 18.503907 3.417969 25.933594 2.535156 10.066406 4.722656 18.757813 1.160156 35.578125s-9.089844 23.878906-15.488281 32.050781c-6.59375 8.421875-14.066407 17.96875-18.351563 38.191407-4.28125 20.21875-1.320312 31.976562 1.289063 42.347656 2.535156 10.066406 4.722656 18.757812 1.160156 35.578125-3.5625 16.820312-9.089844 23.878906-15.488281 32.050781-4.886719 6.242188-10.425782 13.316406-14.609375 24.863281-1.238281 3.417969-4.90625 5.410157-8.515625 4.648438l-28.433594-6.023438c3.5-11.796875 8.269531-17.890625 13.660156-24.773437 6.59375-8.421875 14.066406-17.964844 18.347656-38.1875 4.285157-20.222656 1.324219-31.976563-1.285156-42.351563-2.535156-10.0625-4.722656-18.757812-1.160156-35.578125 3.5625-16.820312 9.089844-23.878906 15.488281-32.050781 6.59375-8.421875 14.066407-17.964844 18.351563-38.1875 4.28125-20.222656 1.320312-31.976563-1.289063-42.351563-2.535156-10.066406-4.726562-18.757812-1.160156-35.578124 3.5625-16.820313 9.089844-23.878907 15.488281-32.054688 6.59375-8.421875 14.066406-17.96875 18.351563-38.191406 4.285156-20.222656 1.324219-31.980469-1.289063-42.351563-2.132812-8.472656-4.003906-15.992187-2.425781-28.183593l28.421875 6.019531c3.617188.769531 6.152344 4.078125 5.898438 7.703125-.855469 12.253906 1.335937 20.964844 3.273437 28.65625 2.535156 10.066406 4.722656 18.757812 1.160156 35.578125-3.566406 16.824219-9.09375 23.882812-15.492187 32.054687-3.894532 4.980469-7.925782 10.128906-11.511719 17.511719-1.808594 3.726563-.253906 8.210937 3.472656 10.019531 3.730469 1.8125 8.214844.257813 10.023438-3.46875 2.886719-5.945312 6.257812-10.253906 9.828125-14.816406 6.59375-8.421875 14.066406-17.96875 18.351562-38.191406s1.324219-31.980469-1.285156-42.351563c-1.824219-7.242187-3.546875-14.082031-2.855469-23.945312.769531-11.046875-6.859375-21.113281-17.753906-23.421875l-126.714844-26.84375c-6.695312-1.421875-13.578125.25-18.882812 4.582031-5.277344 4.308594-8.28125 10.679687-8.230469 17.484375.0625 9.167969 1.792969 16.027344 3.464844 22.667969 2.535156 10.0625 4.722656 18.757812 1.160156 35.578125-3.566406 16.824218-9.09375 23.882812-15.488281 32.054687-6.59375 8.421875-14.070313 17.96875-18.351563 38.191407-4.285156 20.222656-1.324218 31.976562 1.285156 42.351562 2.535157 10.0625 4.726563 18.757812 1.160157 35.578125-3.5625 16.820313-9.089844 23.878906-15.488281 32.050781-6.59375 8.421875-14.066407 17.96875-18.347657 38.1875-4.285156 20.222656-1.324219 31.976563 1.285157 42.351563 2.535156 10.0625 4.722656 18.757812 1.160156 35.578125-3.5625 16.820312-9.089844 23.878906-15.488282 32.050781-4.21875 5.386719-8.578124 10.960937-12.355468 19.3125-2.804688 6.199219-2.648438 13.238281.433594 19.320313 3.09375 6.113281 8.707031 10.429687 15.402343 11.847656l126.714844 26.847656c1.546875.328125 3.097656.484375 4.628906.484375 6.574219 0 12.808594-2.917969 17.035157-7.804687l4.984374 5.058593c4.351563 4.421875 10.191407 6.691407 16.046876 6.691407 4.652343 0 9.316406-1.433594 13.25-4.359376 7.9375-5.894531 14.625-8.132812 21.707031-10.496093 10.144531-3.390625 21.644531-7.234375 36.367187-21.742188 3.011719-2.964843 5.726563-5.957031 8.078125-8.890625 2.589844-3.230468 2.070313-7.949218-1.164062-10.542968-3.230469-2.589844-7.949219-2.066407-10.542969 1.164062-1.984375 2.476562-4.304688 5.03125-6.898438 7.585938-12.246093 12.066406-20.75 14.90625-30.59375 18.199218-7.519531 2.511719-16.039062 5.359375-25.898437 12.683594-2.914063 2.167969-7.070313 1.816406-9.667969-.816406l-8.472656-8.601563c2.757812-5.332031 5.90625-9.363281 9.1875-13.554687 3.089844-3.945313 6.375-8.144532 9.433594-13.570313 8.800781-3.1875 18.742187-7.898437 30.875-19.851562 14.722656-14.507813 18.738281-25.949219 22.277344-36.042969 3.433593-9.792969 6.402343-18.25 18.652343-30.320312 12.246094-12.066407 20.75-14.90625 30.589844-18.195313 10.144531-3.390625 21.644531-7.234375 36.367187-21.742187 14.722657-14.507813 18.738282-25.945313 22.277344-36.039063 3.4375-9.796875 6.402344-18.253906 18.652344-30.324219 12.25-12.066406 20.75-14.910156 30.59375-18.199218 10.144531-3.390626 21.644531-7.234376 36.367188-21.742188 14.726562-14.507812 18.738281-25.945312 22.28125-36.039062 2.890624-8.246094 5.472656-15.550782 13.515624-24.851563l20.386719 20.695313c2.597657 2.632812 2.886719 6.792968.675781 9.675781-7.46875 9.75-10.445312 18.230469-13.070312 25.710937-3.433594 9.792969-6.402344 18.253906-18.652344 30.320313-12.246094 12.070312-20.75 14.910156-30.59375 18.203125-10.144531 3.390625-21.644531 7.230468-36.367187 21.742187-14.726563 14.503907-18.738281 25.945313-22.277344 36.039063-3.4375 9.792968-6.402344 18.253906-18.652344 30.320312-12.246093 12.066406-20.75 14.910156-30.59375 18.199219-10.144531 3.390625-21.640625 7.230469-36.363281 21.738281-11.90625 11.726563-16.648438 21.261719-19.71875 29.039063-1.519531 3.851562.371094 8.207031 4.222656 9.726562 3.855469 1.523438 8.210938-.371093 9.730469-4.222656 2.621094-6.636719 6.40625-14.121094 16.292969-23.859375 12.246094-12.066406 20.75-14.910156 30.59375-18.199219 10.140625-3.390625 21.640625-7.230469 36.363281-21.738281 14.726563-14.507812 18.738281-25.949219 22.277344-36.039062 3.4375-9.796876 6.402343-18.253907 18.652343-30.324219 12.25-12.066407 20.75-14.910157 30.59375-18.199219 10.148438-3.390625 21.644532-7.234375 36.371094-21.742188 14.722656-14.507812 18.738282-25.945312 22.277344-36.039062 2.472656-7.046875 4.804688-13.703125 10.820312-21.554688 6.734376-8.785156 5.917969-21.394531-1.898437-29.324218zm-309.964844-121.964844c-2.21875 15.832031.320313 25.921875 2.597657 34.960938 2.535156 10.066406 4.722656 18.761718 1.160156 35.582031-3.566406 16.824219-9.089844 23.882812-15.488282 32.054687-6.59375 8.421875-14.070312 17.96875-18.351562 38.191406-4.285156 20.222657-1.324219 31.980469 1.289062 42.351563 2.53125 10.0625 4.722657 18.757813 1.15625 35.578125-3.5625 16.820312-9.089843 23.878906-15.484374 32.050781-6.597657 8.421875-14.066407 17.96875-18.351563 38.1875-4.285156 20.222657-1.324219 31.980469 1.289063 42.351563 2.53125 10.066406 4.722656 18.757812 1.15625 35.578125-3.5625 16.820312-9.089844 23.878906-15.488282 32.050781-5.746094 7.339844-12.160156 15.535156-16.546875 30.902344l-6.375-1.347656-35.925781-7.613282c3.5-11.796875 8.265625-17.890625 13.65625-24.769531 6.59375-8.421875 14.066406-17.96875 18.351562-38.191406 4.28125-20.21875 1.324219-31.976563-1.289062-42.347657-2.535156-10.066406-4.722656-18.757812-1.160156-35.578124 3.5625-16.820313 9.089844-23.878907 15.488281-32.050782 6.59375-8.421875 14.066406-17.96875 18.351563-38.191406 4.28125-20.21875 1.324218-31.976562-1.289063-42.347656-2.535156-10.066406-4.722656-18.757813-1.160156-35.582032 3.5625-16.820312 9.089843-23.878906 15.488281-32.050781 6.59375-8.425781 14.066406-17.972656 18.351562-38.195312 4.285157-20.222657 1.324219-31.980469-1.285156-42.351563-2.136718-8.476562-4.027344-15.980468-2.441406-28.183594l17.601562 3.726563zm-179.773437 408.1875c-.597656-1.179688-1.410156-3.574219-.148438-6.363281 3.035156-6.710938 6.660156-11.34375 10.503906-16.25 6.59375-8.421875 14.066407-17.964844 18.351563-38.1875 4.28125-20.222657 1.324219-31.976563-1.289063-42.351563-2.535156-10.0625-4.722656-18.753906-1.160156-35.578125 3.5625-16.820312 9.089844-23.875 15.488282-32.050781 6.59375-8.421875 14.066406-17.964844 18.347656-38.1875 4.285156-20.222656 1.324218-31.976562-1.285156-42.351562-2.535157-10.0625-4.722657-18.757813-1.160157-35.578126 3.5625-16.820312 9.089844-23.878906 15.488281-32.050781 6.59375-8.425781 14.066407-17.96875 18.351563-38.191406s1.324219-31.980469-1.289063-42.355469c-1.519531-6.039062-2.957031-11.746094-3.007812-19.113281-.023438-3.058594 1.691406-4.921875 2.714844-5.757813 1.769531-1.441406 4.0625-2 6.289062-1.527343l26.578125 5.628906c-2.21875 15.828125.316407 25.925781 2.59375 34.964844 2.535157 10.0625 4.722657 18.757812 1.160157 35.578125-3.566407 16.824218-9.089844 23.882812-15.488282 32.054687-6.59375 8.421875-14.070312 17.96875-18.351562 38.191407-4.285156 20.222656-1.324219 31.976562 1.285156 42.351562 2.535156 10.0625 4.726562 18.757812 1.160156 35.578125-3.5625 16.820313-9.089844 23.878906-15.484375 32.050781-6.597656 8.421875-14.070312 17.96875-18.351562 38.1875-4.285157 20.222656-1.324219 31.980469 1.285156 42.351563 2.535156 10.066406 4.726563 18.757812 1.160156 35.578125-3.5625 16.820312-9.089843 23.878906-15.488281 32.050781-5.746094 7.339844-12.15625 15.539063-16.546875 30.90625l-26.574219-5.628906c-2.230468-.472657-4.101562-1.910157-5.132812-3.949219zm216.523437-175.828125c1.285157-6.066406 1.910157-11.359375 2.09375-16.09375 5.957031-3.195313 12.476563-7.761719 19.800781-14.976563 14.726563-14.507812 18.738282-25.949218 22.277344-36.042968 3.4375-9.792969 6.402344-18.25 18.652344-30.320313 12.246094-12.066406 20.75-14.910156 30.59375-18.199219 10.144531-3.390624 21.644531-7.234374 36.367188-21.742187 14.726562-14.507813 18.738281-25.949219 22.28125-36.042969 2.0625-5.878906 4.007812-11.433594 8.027343-17.605468 1.667969-2.5625 4.125-3.167969 5.441407-3.300782 2.277343-.234375 4.488281.570313 6.089843 2.191406l19.0625 19.351563c-10.578125 11.980469-14.027343 21.800781-17.113281 30.597656-3.433594 9.792969-6.402344 18.253907-18.652344 30.320313-12.246094 12.070312-20.75 14.910156-30.59375 18.203125-10.144531 3.390625-21.644531 7.234375-36.367187 21.742187-14.726563 14.507813-18.738281 25.945313-22.277344 36.039063-3.4375 9.796875-6.402344 18.253906-18.652344 30.320312-12.25 12.070313-20.75 14.910157-30.59375 18.199219-7.550781 2.523438-15.851562 5.300781-25.675781 12.535156 3.589844-6.238281 6.890625-14.105468 9.238281-25.175781zm214.472657-100.679687c-3.433594 9.796874-6.402344 18.257812-18.652344 30.324218-12.25 12.070313-20.75 14.910156-30.597656 18.199219-10.140626 3.390625-21.640626 7.234375-36.367188 21.742187-14.722656 14.507813-18.734375 25.949219-22.277344 36.042969-3.4375 9.792969-6.402344 18.25-18.648437 30.320313-12.25 12.066406-20.75 14.90625-30.59375 18.195312-10.144531 3.390625-21.644531 7.234375-36.367188 21.742188-14.722656 14.507812-18.738281 25.945312-22.277343 36.039062-3.4375 9.792969-6.402344 18.253906-18.648438 30.320313-4.574219 4.507812-8.625 7.71875-12.417969 10.15625.34375-1.359375.675781-2.765625.984375-4.234375 4.285156-20.222656 1.324219-31.980469-1.289062-42.351563-1.121094-4.464843-2.175782-8.660156-2.691406-13.414062 3.515624-6.191407 5.484374-11.789063 7.320312-17.019531 3.4375-9.792969 6.402344-18.253907 18.652344-30.320313 12.246094-12.066406 20.75-14.910156 30.589844-18.199219 10.148437-3.390625 21.644531-7.230468 36.367187-21.738281s18.738281-25.949219 22.277344-36.042969c3.4375-9.792968 6.402343-18.25 18.652343-30.320312 12.25-12.070313 20.75-14.910156 30.59375-18.199219 10.144532-3.390625 21.644532-7.234375 36.367188-21.742187 14.726562-14.507813 18.738281-25.949219 22.28125-36.042969 2.894531-8.246094 5.453125-15.550781 13.507812-24.855469l30.347657 30.800781c-10.582031 11.984375-14.027344 21.800781-17.113281 30.597657zm0 0"></path></svg>