<svg height="511pt" viewBox="0 -26 511.90032 511" width="511pt" xmlns="http://www.w3.org/2000/svg" id="fi_1357577"><path d="m439.527344 231.71875c-6.527344-42.03125-23.359375-81.789062-48.996094-115.730469-1.171875-1.585937-3.257812-2.199219-5.105469-1.5-1.847656.695313-3.003906 2.535157-2.835937 4.503907 7.058594 82.183593-116.171875 91.804687-91.277344-7.769532 8.5625-34.25 15.535156-83.863281-17.128906-108.402344-2.558594-1.941406-6.441406-3.53125-8.648438-1.234374-4.328125 4.589843 1.410156 11.121093 2.472656 15.710937 1.386719 5.863281.632813 12.03125-2.121093 17.390625-13.0625 27.453125-46.078125 36.632812-62.761719 61.351562-16.15625 24.011719-18.273438 54.378907-15.625 82.097657 1.132812 9.910156.804688 19.933593-.972656 29.75-3.152344 16.414062-17.8125 28.074219-34.515625 27.453125-35.75-2.824219-32.75-51.378906-30.101563-76.535156.183594-1.921876-.902344-3.742188-2.683594-4.492188-1.78125-.746094-3.839843-.25-5.085937 1.226562-16.152344 18.359376-45.636719 66.382813-25.863281 158.71875 1.710937 8.121094 4.164062 16.070313 7.324218 23.746094l89.902344 87.347656 223.515625-55.550781zm0 0" fill="#f0c419"></path><path d="m337.390625 249.179688c-13.859375-19.332032-35.398437-32.042969-54.820313-45.019532-21.273437-14.214844-60.554687-47.050781-44.226562-76.007812-22.597656 37.078125 3.53125 77.597656 16.597656 114.230468 4.1875 12.320313 3.132813 25.820313-2.914062 37.339844-6.699219 12.734375-18.6875 21.847656-32.75 24.894532-17.851563 3.046874-36.0625-2.859376-48.726563-15.800782-18.804687-17.742187-14.476562 35.046875-12.625 41.753906 2.300781 8.675782 6.03125 16.910157 11.035157 24.363282l98.074218 44.667968 91.957032-81.371093zm0 0" fill="#e57e25"></path><path d="m487.007812 367.382812-12.3125-61.554687-42.277343-41.933594-89.472657 15.441407c-16.429687 15.890624-68.035156 60.832031-135.789062 72.746093-29.984375 5.488281-60.871094 3.386719-89.835938-6.117187-50.820312-16.613282-80.472656-37.894532-97.777343-57.441406-3.332031-3.984376-8.992188-5.109376-13.601563-2.707032-4.605468 2.40625-6.917968 7.695313-5.550781 12.710938.953125 3.722656 2.027344 7.414062 3.21875 11.070312.730469 2.234375 1.507813 4.460938 2.332031 6.671875 34.59375 92.9375 141.992188 134.972657 233.816406 142.582031 89.644532 7.398438 192.617188-13.371093 247.25-91.46875zm0 0" fill="#e64c3c"></path><path d="m427.183594 286.007812s-68.4375 30.792969-105.046875-30.488281c-1.113281-1.902343-.992188-4.285156.316406-6.058593 1.304687-1.777344 3.539063-2.605469 5.6875-2.109376 18.035156 4.222657 52.171875 8.148438 73.375-14.925781 29.863281-32.503906 111.78125 57.757813 104.976563 81.476563-5.101563 17.789062-5.640626 39.777344 4.414062 52.535156 1.320312 1.914062 1.324219 4.441406.011719 6.363281-1.3125 1.917969-3.671875 2.828125-5.933594 2.289063-15.804687-3.214844-35.585937-14.691406-37.148437-51.742188 0 0-4.941407 49.4375-52.902344 36.488282-1.816406-.476563-3.273438-1.832032-3.871094-3.613282-.601562-1.777344-.261719-3.738281.894531-5.214844 11-13.78125 34.304688-47.46875 15.226563-65zm0 0" fill="#4c8056"></path><path d="m470.210938 263.339844c-3.304688-.003906-6.332032-1.855469-7.84375-4.796875-1.507813-2.941407-1.25-6.480469.675781-9.167969 13.90625-18.402344 19.808593-41.632812 16.367187-64.441406-4.847656-25.785156-23.96875-49.742188-56.832031-71.203125-4.085937-2.667969-5.230469-8.140625-2.566406-12.222657 2.667969-4.082031 8.140625-5.230468 12.222656-2.5625 37.074219 24.195313 58.765625 52.027344 64.539063 82.730469 4.355468 27.554688-2.632813 55.695313-19.378907 78.007813-1.664062 2.304687-4.339843 3.667968-7.183593 3.65625zm0 0" fill="#527f72"></path><g fill="#fb7b76"><path d="m197.21875 393.230469c-3.972656 0-8.023438-.097657-12.148438-.292969-4.867187-.238281-8.621093-4.375-8.386718-9.242188.378906-4.800781 4.4375-8.472656 9.253906-8.367187 47.984375 2.8125 95.542969-10.382813 135.21875-37.519531 3.828125-2.945313 9.316406-2.269532 12.3125 1.519531 2.996094 3.792969 2.386719 9.289063-1.367188 12.332031-39.484374 27.667969-86.671874 42.210938-134.882812 41.570313zm0 0"></path><path d="m361.929688 327.058594c0 4.875-3.949219 8.828125-8.824219 8.828125s-8.828125-3.953125-8.828125-8.828125 3.953125-8.828125 8.828125-8.828125 8.824219 3.953125 8.824219 8.828125zm0 0"></path></g></svg>