<svg id="fi_3153821" enable-background="new 0 0 512.023 512.023" height="512" viewBox="0 0 512.023 512.023" width="512" xmlns="http://www.w3.org/2000/svg"><g><g clip-rule="evenodd" fill-rule="evenodd"><path d="m295.087 152.785c19.586 0 38.049-1.677 54.275-4.909 37.386-7.448 62.896-23.155 62.896-45.642 0-32.248-68.134-66.227-132.846-66.227-64.711 0-101.495 33.979-101.495 66.227 0 23.152 27.04 39.117 66.24 46.281 15.4 2.813 32.677 4.27 50.93 4.27z" fill="#c68a65"></path><path d="m363.244 230.076c-5.758-39.343-12.493-64.445-13.882-82.201-16.226 3.233-34.689 4.909-54.275 4.909-18.252 0-35.53-1.456-50.93-4.271-5.775 55.183-40.017 114.068-8.611 154.752 24.9 32.257 86.975 39.171 116.318 9.55-26.114-13.635-41.521-30.835-36.923-47.994 4.546-16.971 22.063-31.112 48.303-34.745z" fill="#f4e9e2"></path><path d="m409.784 233.775c-17.417-4.667-33.119-5.557-46.539-3.699-26.241 3.633-43.757 17.775-48.304 34.745-4.598 17.159 10.809 34.359 36.923 47.994 1.911.998 3.879 1.976 5.901 2.934 11.65 5.521 25.082 10.362 39.6 14.252 15.578 4.174 30.621 6.775 44.216 7.663 31.324 2.044 54.962-5.013 59.754-22.899 6.872-25.65-40.08-67.198-91.551-80.99z" fill="#c68a65"></path><path d="m397.364 330.001c-14.518-3.89-27.95-8.731-39.6-14.252-16.354 42.661-56.14 82.201-39.831 121.254 17.908 42.883 102.901 62.316 113.582-4.978 7.559-47.62 6.728-76.406 10.064-94.361-13.594-.887-28.637-3.489-44.215-7.663z" fill="#f4e9e2"></path><path d="m114.649 259.533c14.518-3.89 27.95-8.73 39.6-14.251 29.653-14.053 47.758-32.514 42.824-50.929-6.873-25.649-43.372-44.837-94.843-31.045-51.471 13.791-98.423 55.34-91.551 80.99 4.793 17.886 28.43 24.943 59.754 22.899 13.594-.888 28.637-3.49 44.216-7.664z" fill="#c68a65"></path><path d="m154.248 245.282c-11.65 5.521-25.082 10.362-39.6 14.251-15.578 4.174-30.621 6.776-44.217 7.66 3.337 17.958 2.506 46.745 10.064 94.365 10.682 67.293 95.675 47.86 113.583 4.977 16.31-39.054-23.476-78.593-39.83-121.253z" fill="#f4e9e2"></path></g><g><path d="m167.111 250.027c30.271-16.469 45.212-37.389 39.62-58.262-6.479-24.178-35.908-47.723-85.173-42.291-5.49.605-9.449 5.546-8.844 11.036s5.551 9.449 11.035 8.844c35.882-3.958 59.187 10.883 63.663 27.587 4.666 17.417-27.729 40.173-75.353 52.934-24.623 6.598-47.666 9.052-64.887 6.908-10.759-1.339-24.148-5.041-26.837-15.073-2.045-7.633 5.338-22.813 26.441-39.522 4.329-3.429 5.061-9.718 1.632-14.048s-9.715-5.062-14.048-1.632c-25.961 20.556-38.115 42.563-33.342 60.377 2.517 9.392 11.538 25.744 43.686 29.744 4.805.598 9.967.893 15.42.893.55 0 1.112-.011 1.668-.017.579 5.32 1.029 11.497 1.553 18.764 1.169 16.24 2.771 38.482 7.275 66.856 4.714 29.697 23.234 48.622 50.813 51.921 2.824.338 5.674.502 8.532.502 30.739 0 62.414-18.997 73.341-45.161 13.124-31.428-4.066-61.742-20.69-91.057-5.447-9.603-11.023-19.47-15.505-29.303zm17.74 112.654c-8.436 20.199-36.963 35.388-61.042 32.507-12.951-1.55-29.265-8.914-33.438-35.198-4.369-27.529-5.872-48.393-7.079-65.158-.512-7.105-.956-13.218-1.531-18.684 6.345-.759 12.909-1.828 19.622-3.206.618 3.314 1.331 7.252 2.074 11.355 2.735 15.111 4.614 25.32 5.772 29.372 1.255 4.392 5.259 7.255 9.61 7.255.909 0 1.834-.125 2.752-.387 5.311-1.518 8.386-7.052 6.868-12.363-.972-3.4-3.486-17.294-5.323-27.439-.827-4.573-1.62-8.951-2.294-12.536 10.177-2.861 19.595-6.089 28.18-9.623 4.803 10.503 10.566 20.698 16.194 30.621 15.552 27.421 28.982 51.102 19.635 73.484z"></path><path d="m484.064 262.333c-19.585-17.327-45.716-31.257-71.692-38.217-14.2-3.805-27.892-5.406-40.661-4.842-2.415-15.241-4.926-28.311-7.002-39.116-1.831-9.53-3.365-17.515-4.366-24.385 38.92-9.614 61.915-28.578 61.915-53.54 0-19.305-17.384-39.044-47.694-54.156-28.133-14.026-62.814-22.071-95.152-22.071-32.219 0-60.188 7.927-80.882 22.923-19.455 14.099-30.613 33.527-30.613 53.304 0 25.634 24.248 44.942 65.089 54.295-2.15 13.637-5.795 27.707-9.345 41.378-10.158 39.114-20.661 79.559 3.971 111.468 13.874 17.973 38.256 29.925 65.223 31.972 2.714.206 5.4.308 8.061.308 13.495-.001 26.206-2.641 37.226-7.594-2.828 5.291-5.802 10.553-8.742 15.738-16.625 29.315-33.815 59.628-20.69 91.057 10.927 26.167 42.6 45.163 73.34 45.161 2.856 0 5.711-.165 8.534-.502 27.578-3.3 46.099-22.225 50.812-51.921 4.506-28.378 6.107-50.623 7.277-66.864.524-7.275.972-13.443 1.551-18.756.556.006 1.117.017 1.668.017 5.451 0 10.617-.295 15.421-.893 32.147-4 41.169-20.353 43.685-29.744 4.352-16.261-5.211-35.8-26.934-55.02zm-296.148-160.1c0-27.639 34.224-56.228 91.495-56.228 28.913 0 61.148 7.465 86.229 19.97 22.587 11.262 36.618 25.155 36.618 36.257 0 13.807-15.27 22.903-28.079 28.103-19.777 8.028-47.865 12.449-79.092 12.449s-59.314-4.421-79.092-12.449c-12.81-5.199-28.079-14.295-28.079-28.102zm106.45 219.172c-21.088-1.601-40.594-10.893-50.904-24.25-18.643-24.15-9.803-58.186-.445-94.22 3.639-14.013 7.368-28.432 9.669-42.853 12.953 1.772 27.141 2.703 42.401 2.703 4.035 0 7.991-.069 11.874-.197.168 6.358.447 14.57.718 22.577l.227 6.709c.18 5.406 4.619 9.667 9.988 9.667.112 0 .226-.002.34-.005 5.52-.185 9.845-4.808 9.66-10.328l-.227-6.72c-.281-8.294-.57-16.817-.733-23.176 4.734-.459 9.323-1.023 13.76-1.689 1.06 7.061 2.579 14.971 4.374 24.311 2.137 11.119 4.515 23.506 6.842 38.165-3.379.847-6.672 1.856-9.845 3.069-19.014 7.272-32.421 20.782-36.784 37.065-2.517 9.392-2.88 28.063 22.961 47.602 1.8 1.361 3.713 2.701 5.707 4.023-10.813 5.97-24.648 8.678-39.583 7.547zm134.355 43.887c-1.208 16.766-2.711 37.632-7.081 65.166-4.172 26.284-20.485 33.649-33.437 35.198-24.078 2.886-52.606-12.308-61.042-32.507-9.348-22.383 4.082-46.064 19.633-73.484 5.64-9.945 11.415-20.165 16.225-30.694 9.782 4.049 20.464 7.663 31.756 10.689 12.239 3.28 24.207 5.608 35.476 6.956-.574 5.46-1.018 11.562-1.53 18.676zm62.954-53.115c-2.688 10.033-16.077 13.734-26.836 15.073-17.222 2.143-40.265-.311-64.888-6.908-24.622-6.598-45.805-15.995-59.647-26.461-8.647-6.539-18.393-16.439-15.704-26.472 4.27-15.931 23.737-28.231 52.104-28.231 9.284 0 19.522 1.318 30.492 4.257 22.745 6.095 46.527 18.76 63.615 33.878 14.833 13.123 23.022 26.808 20.864 34.864z"></path><path d="m79.264 181.358c5.522 0 10-4.477 10-10s-4.478-10-10-10h-.008c-5.522 0-9.996 4.477-9.996 10s4.481 10 10.004 10z"></path></g></g></svg>