<svg id="fi_3523332" enable-background="new 0 0 511.984 511.984" height="512" viewBox="0 0 511.984 511.984" width="512" xmlns="http://www.w3.org/2000/svg"><g><g><g><path d="m297.002 7.851-9.88 5.95c-12.77 7.7-23.97 17.73-33.02 29.58l-3.014 3.705-11.673 22.71v87.891l44.296-18.776v-48.43c0-26.39 5.28-52.52 15.52-76.84l1.2-2.83c.891-2.119-1.449-4.159-3.429-2.96z" fill="#c1e9af"></path></g><path d="m269.042 84.341c-2.39-14.79-8.44-28.65-17.47-40.38-3.53-4.59-7.52-8.86-11.92-12.73l-23.14-20.32c-1.9-1.67-4.75.39-3.77 2.72l.01.01c10.24 24.32 15.52 50.45 15.52 76.84v48.43l14.829 18.776h26.062l8.089-18.776z" fill="#97da7b"></path><path d="m301.132 164.791c-10.18-2.37-17.42-11.38-17.42-21.83v-4.05h-27.72l-28.983 60.72v249.852l28.983 54.998c102.23 0 185.1-77.2 185.1-172.43 0-80.72-59.55-148.48-139.96-167.26z" fill="#cb97e7"></path><g><g><path d="m275.998 503.486-.007-364.575h-20l-28.983 60.72v249.852l28.983 54.998c6.759.001 13.437-.337 20.007-.995z" fill="#bd80e1"></path><path d="m255.992 138.912v365.57c-102.23 0-185.1-77.2-185.1-172.43 0-80.72 59.55-148.48 139.96-167.26 10.18-2.37 17.42-11.38 17.42-21.83v-4.05z" fill="#d9b1ee"></path></g><path d="m255.992 199.631h-32.845v264.85h32.845c80.01 0 145.1-59.41 145.1-132.43 0-73.019-65.09-132.42-145.1-132.42z" fill="#d9b1ee"></path><path d="m234.914 464.482h21.079c6.785 0 13.461-.422 20.001-1.249l-.001-262.348c-6.54-.826-13.215-1.253-20-1.253h-28.983v249.852z" fill="#cb97e7"></path><g id="XMLID_299_"><g><g><path d="m255.992 245.631h-36.455v169.876l36.455 2.974c54.64 0 99.1-38.77 99.1-86.43 0-47.65-44.46-86.42-99.1-86.42z" fill="#e5caf3"></path></g><path d="m227.009 245.638v170.486l28.983 2.364c6.849 0 13.538-.61 20-1.769l-.001-169.32c-6.462-1.159-13.15-1.761-19.999-1.761z" fill="#d9b1ee"></path><path d="m255.992 294.631-28.983-1.485v74.51l28.983 1.825c27.16 0 50.1-17.14 50.1-37.43 0-20.28-22.94-37.42-50.1-37.42z" fill="#ebd5f6"></path><path d="m275.992 366.251-.001-68.39c-6.164-2.073-12.935-3.23-19.999-3.23l-28.983-1.485v74.51l28.983 1.825c7.064.001 13.836-1.157 20-3.23z" fill="#e5caf3"></path><g id="XMLID_305_"><g fill="#cb97e7"><path d="m255.992 504.482c-13.12 0-25.92-1.27-38.27-3.69v-.01c-20.39-28.32-34.64-93.2-34.64-168.73 0-77.92 15.17-144.52 36.6-171.31l-.09-.11c5.34-4.14 8.68-10.57 8.68-17.67v-4.05h27.72z"></path><path d="m185.492 491.522v.01c-67.26-25.83-114.6-87.5-114.6-159.48 0-71.97 47.34-133.64 114.61-159.47-37.41 31.75-62.62 91.26-62.62 159.47s25.2 127.72 62.61 159.47z"></path></g></g></g></g></g><g><path d="m241.438 138.912h-13.166v4.05c0 2.267-.359 4.459-.997 6.537 4.585-3.728 9.309-7.261 14.163-10.587z" fill="#cb97e7"></path></g></g><path d="m380.51 194.79c-3.248-2.574-7.964-2.026-10.536 1.22-2.573 3.247-2.026 7.964 1.22 10.536 39.655 31.421 62.398 77.167 62.398 125.509 0 88.608-75.637 161.107-170.101 164.771v-25.032c80.672-3.6 145.101-64.89 145.101-139.739s-64.428-136.141-145.101-139.74v-45.902h12.937c1.429 12.449 10.47 22.762 22.998 25.688 16.172 3.774 31.706 9.677 46.17 17.543 1.138.619 2.366.912 3.576.912 2.659 0 5.235-1.417 6.596-3.918 1.979-3.639.633-8.192-3.006-10.172-15.646-8.509-32.444-14.893-49.926-18.973-6.847-1.599-11.629-7.574-11.629-14.532v-52.475c0-2.28.054-4.75.165-7.553 0 0 0 0 0-.001.911-22.938 5.882-45.271 14.774-66.375l1.194-2.833c1.666-3.955.605-8.499-2.639-11.308-3.246-2.81-7.895-3.207-11.569-.993l-9.888 5.958c-11.644 7.017-21.945 15.773-30.725 26.054-2.485-2.749-5.119-5.376-7.922-7.837l-23.14-20.319c-3.481-3.057-8.539-3.301-12.299-.589-3.759 2.71-5.127 7.584-3.327 11.854.01.022.02.046.03.07 9.25 21.972 14.246 45.194 14.852 69.028.106 4.141 3.538 7.376 7.688 7.308 4.141-.105 7.412-3.548 7.308-7.688-.482-18.952-3.537-37.545-9.106-55.505l8.101 7.112c14.32 12.574 23.887 29.858 26.925 48.583l6.909 45.96h-32.76v-13.998c0-4.143-3.357-7.5-7.5-7.5s-7.5 3.357-7.5 7.5v25.546c0 6.958-4.782 12.934-11.629 14.532-40.852 9.536-77.838 31.855-104.146 62.847-27.221 32.066-41.609 70.697-41.609 111.716 0 99.213 86.4 179.929 192.601 179.929s192.601-80.716 192.601-179.929c-.004-52.951-24.819-102.982-68.086-137.265zm-117.018 181.794c11.974-1.25 23.21-5.466 32.223-12.199 11.361-8.487 17.878-20.271 17.878-32.33s-6.517-23.843-17.878-32.33c-9.012-6.733-20.248-10.951-32.223-12.2v-34.124c47.013 3.299 84.101 37.31 84.101 78.654 0 41.345-37.087 75.363-84.101 78.662zm0-73.939c19.404 2.65 35.101 15.254 35.101 29.41 0 14.155-15.697 26.758-35.101 29.408zm130.1 29.41c0 66.6-57.704 121.175-130.101 124.725v-31.033c55.293-3.403 99.101-44.122 99.101-93.692 0-49.569-43.809-90.28-99.101-93.684v-31.044c72.398 3.55 130.101 58.128 130.101 124.728zm-145.1 164.771c-8.969-.348-17.767-1.316-26.348-2.86-14.037-21.413-24.94-62.732-29.347-111.631-.372-4.125-4.019-7.163-8.143-6.797-4.126.372-7.169 4.018-6.797 8.143 3.93 43.599 12.675 80.774 24.583 105.635-4.443-1.308-8.809-2.777-13.095-4.394-36.394-31.603-58.96-90.003-58.96-152.866 0-62.888 22.583-121.306 58.999-152.901 4.293-1.621 8.655-3.088 13.078-4.389-16.645 34.727-26.885 93.003-26.885 157.29 0 6.243.106 12.714.316 19.232.131 4.058 3.461 7.259 7.491 7.259.082 0 .164-.001.246-.004 4.141-.134 7.389-3.598 7.255-7.737-.205-6.358-.309-12.667-.309-18.75 0-73.408 14.008-140.277 34.866-166.509 5.568-4.807 9.243-11.571 10.111-19.134h12.937v350.413zm39.413-474.67c-6.831 19.347-10.701 39.538-11.521 60.181v.001c-.005.131-.009.252-.014.382-2.216-13.291-7.193-25.918-14.468-37.095 7.399-9.179 16.112-17.064 26.003-23.469zm-209.514 309.899c0-37.415 13.155-72.689 38.044-102.008 10.64-12.533 23.186-23.528 37.105-32.668-7.85 11.49-14.7 24.416-20.336 38.47-11.657 29.065-17.818 62.333-17.818 96.205 0 33.869 6.16 67.133 17.814 96.197 5.633 14.046 12.483 26.957 20.326 38.441-45.428-29.901-75.135-79.107-75.135-134.637z"></path></g></svg>