<svg id="fi_3003814" enable-background="new 0 0 512.013 512.013" height="512" viewBox="0 0 512.013 512.013" width="512" xmlns="http://www.w3.org/2000/svg"><g><g clip-rule="evenodd" fill-rule="evenodd"><path d="m62.687 350.329 98.995 98.995c3.889 3.889 10.253 3.889 14.142 0l49.498-49.498c7.778-7.778 7.778-20.506 0-28.284l-84.853-84.853c-7.778-7.778-20.506-7.778-28.284 0l-49.498 49.498c-3.889 3.889-3.889 10.252 0 14.142z" fill="#c68a86"></path><path d="m140.469 286.689 84.853 84.853c7.778 7.778 20.506 7.778 28.284 0s7.778-20.506 0-28.284l-84.853-84.853c-7.778-7.778-20.506-7.778-28.284 0s-7.778 20.506 0 28.284z" fill="#ffda8f"></path><path d="m168.753 258.405 84.853 84.853c91.913 0 61.829-61.829 149.907-149.907l-84.853-84.853c-88.078 88.078-149.907 57.994-149.907 149.907z" fill="#c68a86"></path><path d="m318.66 108.498 84.853 84.853c7.778 7.778 20.506 7.778 28.284 0s7.778-20.506 0-28.284l-21.213-21.212-42.428-42.428-21.212-21.213c-7.778-7.778-20.506-7.778-28.284 0-7.778 7.779-7.778 20.506 0 28.284z" fill="#ffda8f"></path><path d="m368.157 101.427 42.427 42.427c19.445 19.445 51.265 19.445 70.711 0 19.445-19.446 19.445-51.265 0-70.711l-5.303-5.303-31.82-31.82-5.304-5.304c-19.445-19.445-51.265-19.445-70.71.001-19.446 19.446-19.446 51.265-.001 70.71z" fill="#c68a86"></path><path d="m444.171 36.02 31.82 31.82 19.445-19.445c8.751-8.751 8.751-23.069 0-31.82-8.75-8.75-23.069-8.751-31.82 0z" fill="#ffda8f"></path></g><g><path d="m502.508 55.465c12.671-12.671 12.671-33.29 0-45.962-12.674-12.671-33.291-12.671-45.963 0l-12.419 12.419c-23.507-21.645-60.237-21.079-83.04 1.724-11.768 11.768-17.61 27.249-17.538 42.707-3.382-1.291-7.009-1.973-10.746-1.973-8.028 0-15.562 3.112-21.213 8.763-5.65 5.651-8.763 13.185-8.763 21.213 0 4.518.985 8.878 2.853 12.834-32.042 30.523-60.252 45.222-83.177 57.161-33.649 17.524-58.806 30.633-63.098 78.604-1.571-.25-3.171-.383-4.794-.383-8.029 0-15.563 3.112-21.212 8.763-5.261 5.261-8.319 12.154-8.716 19.56-7.125.388-14.138 3.292-19.569 8.723l-49.499 49.499c-3.769 3.77-5.845 8.792-5.845 14.142s2.076 10.372 5.846 14.142l98.995 98.994c3.77 3.771 8.792 5.847 14.143 5.847s10.373-2.076 14.143-5.846l49.498-49.497c5.431-5.431 8.336-12.444 8.724-19.569 7.406-.397 14.3-3.455 19.56-8.715 5.651-5.65 8.764-13.185 8.764-21.213 0-1.623-.133-3.224-.383-4.794 47.971-4.292 61.079-29.449 78.604-63.098 11.94-22.926 26.639-51.139 57.166-83.183 4.048 1.91 8.437 2.869 12.827 2.869 7.683 0 15.365-2.924 21.214-8.771 5.65-5.651 8.763-13.185 8.763-21.213 0-3.738-.683-7.364-1.973-10.747.094 0 .188.007.282.007 15.365 0 30.729-5.848 42.427-17.545 11.293-11.294 17.513-26.361 17.513-42.427 0-15.224-5.594-29.546-15.789-40.615zm-14.143-31.82c4.873 4.874 4.873 12.806 0 17.679l-12.374 12.374-17.678-17.678 12.373-12.374c4.875-4.871 12.805-4.874 17.679-.001zm-270.114 369.11-49.497 49.497-98.995-98.994 49.498-49.498c1.949-1.949 4.51-2.924 7.071-2.924s5.122.975 7.071 2.924l84.853 84.854c3.898 3.898 3.898 10.243-.001 14.141zm28.284-28.284c-1.873 1.873-4.384 2.905-7.07 2.905s-5.198-1.032-7.071-2.905c-.002-.002-.003-.003-.005-.005l-84.848-84.849c-1.873-1.873-2.904-4.384-2.904-7.07s1.031-5.197 2.905-7.07c1.873-1.873 4.384-2.905 7.07-2.905s5.198 1.032 7.071 2.905l84.854 84.853c1.873 1.873 2.905 4.385 2.905 7.071-.002 2.685-1.034 5.197-2.907 7.07zm178.192-178.19c-3.898 3.897-10.238 3.897-14.138.005-.002-.002-.003-.004-.005-.005-.003-.003-.007-.006-.01-.009l-10.598-10.599c-3.905-3.905-10.236-3.905-14.142-.001-3.906 3.905-3.906 10.236-.001 14.142l3.636 3.636c-31.85 33.648-47.12 62.96-59.546 86.821-17.846 34.267-27.063 51.955-72.22 52.943l-78.904-78.904c.988-45.156 18.676-54.373 52.942-72.219 23.861-12.426 53.173-27.696 86.821-59.546l3.635 3.635c3.906 3.904 10.236 3.904 14.143 0 3.905-3.905 3.905-10.237 0-14.143l-10.608-10.608c-3.899-3.898-3.899-10.243 0-14.142 3.897-3.898 10.242-3.899 14.142 0l84.853 84.854c1.873 1.873 2.905 4.384 2.905 7.071-.001 2.685-1.033 5.195-2.905 7.069zm49.496-49.499c-7.516 7.517-17.561 11.655-28.283 11.655-10.724 0-20.769-4.139-28.284-11.655-.002-.002-.005-.004-.008-.007l-42.417-42.417c-.001-.001-.002-.002-.002-.002-15.596-15.596-15.596-40.972 0-56.567 15.597-15.597 40.973-15.596 56.567-.001l42.428 42.428c7.517 7.516 11.655 17.56 11.655 28.283s-4.139 20.768-11.656 28.283z"></path><path d="m10.006 492.013h-.008c-5.523 0-9.997 4.478-9.997 10s4.481 10 10.004 10 10-4.478 10-10-4.476-10-9.999-10z"></path><path d="m70.008 492.013h-.008c-5.523 0-9.997 4.478-9.997 10s4.481 10 10.004 10 10-4.478 10-10-4.476-10-9.999-10z"></path><path d="m10.006 432.011h-.008c-5.523 0-9.997 4.478-9.997 10s4.481 10 10.004 10 10-4.478 10-10-4.476-10-9.999-10z"></path><path d="m70.008 432.011h-.008c-5.523 0-9.997 4.478-9.997 10s4.481 10 10.004 10 10-4.478 10-10-4.476-10-9.999-10z"></path><path d="m361.087 140.925h-.008c-5.522 0-9.996 4.478-9.996 10s4.481 10 10.004 10 10-4.478 10-10-4.477-10-10-10z"></path></g></g></svg>