<svg id="fi_3280124" enable-background="new 0 0 510.815 510.815" height="512" viewBox="0 0 510.815 510.815" width="512" xmlns="http://www.w3.org/2000/svg"><g><g><path d="m490.961 150.292-24.329 27.317-85.789 31.491-30.945 6.553-24.414 13.768-39.719 14.58c-3.804 1.396-7.602-2.075-6.552-5.99l51.83-193.169 13.876-28.594c.734-2.738 148.579 133.113 146.042 134.044z" fill="#ffe07d"></path><path d="m498.327 165.975-31.694 11.639c-21.26-63.15-71.86-112.81-135.59-132.77l9.019-33.618c.735-2.74 3.602-4.322 6.313-3.487 72.773 22.434 131.001 79.166 154.978 151.96.845 2.567-.489 5.345-3.026 6.276z" fill="#ffc736"></path><path d="m482.403 171.824-15.77 5.79c-21.26-63.15-71.86-112.81-135.59-132.77l4.29-15.99 17.26 5.42c58.55 18.39 105.2 64.21 124.78 122.56z" fill="#faaa0a"></path><path d="m254.823 503.134c-130.52 5.04-240.41-96.68-245.45-227.2-5.04-130.52 96.69-240.41 227.2-245.45 20.77-.8 41.016 1.095 60.397 5.389 2.787.618 4.502 3.431 3.762 6.188l-65.49 244.05c-1.05 3.914 2.748 7.386 6.552 5.99l227.446-83.496c2.812-1.032 5.904.62 6.594 3.536 3.477 14.686 5.584 29.91 6.189 45.553 5.04 130.51-96.69 240.4-227.2 245.44z" fill="#ffc736"></path><path d="m410.383 436.544c-40.4 39.22-94.87 64.25-155.56 66.59-130.52 5.04-240.41-96.68-245.45-227.2-3.01-77.94 32.06-148.53 88.59-193.82-46.45 45.12-74.29 109.02-71.59 178.82 5.04 130.52 114.93 232.24 245.45 227.2 52.55-2.03 100.43-21.06 138.56-51.59z" fill="#faaa0a"></path><path d="m442.503 266.824c0 108.35-88.15 196.5-196.5 196.5s-196.5-88.15-196.5-196.5 88.15-196.5 196.5-196.5c15.73 0 31.03 1.86 45.7 5.37l-56.46 210.42c-1.05 3.91 2.75 7.38 6.55 5.99l90.832-33.344 28.652-5.957 26.718-14.369 48.978-17.98c3.62 14.87 5.53 30.4 5.53 46.37z" fill="#ffe07d"></path><path d="m380.843 209.104-29.542 7.699-25.818 12.621c-5.81-15.04 1.56-32 16.57-37.99 15.13-6.05 32.3 1.31 38.34 16.44.16.41.32.82.45 1.23z" fill="#df646e"></path><path d="m380.843 209.104-55.36 20.32c-5.5-14.23.8-30.18 14.21-36.92-3.351 6.601-4.199 14.425-1.9 21.923.336 1.098 1.533 1.688 2.611 1.293l36.94-13.555c1.21 1.75 2.23 3.66 3.05 5.71.159.409.319.819.449 1.229z" fill="#dc4955"></path><path d="m371.123 276.394c-15.18 5.92-32.29-1.6-38.19-16.78-.1-.29-.21-.58-.31-.86l6.805.559 5.734-5.162 42.851-15.728.03.14c5.67 15.091-1.85 31.981-16.92 37.831z" fill="#df646e"></path><path d="m385.673 264.154c-3.24 5.39-8.23 9.79-14.55 12.24-15.18 5.92-32.29-1.6-38.19-16.78-.1-.29-.21-.58-.31-.86l12.54-4.6c7.26 12.08 22.38 17.54 35.96 12.24 1.61-.62 3.13-1.37 4.55-2.24z" fill="#dc4955"></path><g fill="#df646e"><circle cx="210.003" cy="133.824" r="25.5"></circle><circle cx="246.003" cy="406.824" r="25.5"></circle><circle cx="123.003" cy="229.824" r="25.5"></circle><circle cx="143.003" cy="359.824" r="25.5"></circle><circle cx="367.003" cy="338.824" r="25.5"></circle></g><g fill="#dc4955"><path d="m235.003 138.824c-2.31 11.69-12.63 20.5-25 20.5-14.08 0-25.5-11.42-25.5-25.5 0-12.37 8.81-22.69 20.5-25-.33 1.62-.5 3.29-.5 5 0 14.08 11.42 25.5 25.5 25.5 1.71 0 3.38-.17 5-.5z"></path><path d="m271.003 411.824c-2.31 11.69-12.63 20.5-25 20.5-14.08 0-25.5-11.42-25.5-25.5 0-12.37 8.81-22.69 20.5-25-.33 1.62-.5 3.29-.5 5 0 14.08 11.42 25.5 25.5 25.5 1.71 0 3.38-.17 5-.5z"></path><path d="m148.003 234.824c-2.31 11.69-12.63 20.5-25 20.5-14.08 0-25.5-11.42-25.5-25.5 0-12.37 8.81-22.69 20.5-25-.33 1.62-.5 3.29-.5 5 0 14.08 11.42 25.5 25.5 25.5 1.71 0 3.38-.17 5-.5z"></path><path d="m168.003 364.824c-2.31 11.69-12.63 20.5-25 20.5-14.08 0-25.5-11.42-25.5-25.5 0-12.37 8.81-22.69 20.5-25-.33 1.62-.5 3.29-.5 5 0 14.08 11.42 25.5 25.5 25.5 1.71 0 3.38-.17 5-.5z"></path><path d="m392.003 343.824c-2.31 11.69-12.63 20.5-25 20.5-14.08 0-25.5-11.42-25.5-25.5 0-12.37 8.81-22.69 20.5-25-.33 1.62-.5 3.29-.5 5 0 14.08 11.42 25.5 25.5 25.5 1.71 0 3.38-.17 5-.5z"></path></g><path d="m182.997 221.125c-8.242-11.743-4.249-29.012-2.761-34.237.264-.925 1.138-1.525 2.096-1.44 5.469.487 23.371 2.957 31.627 14.719 8.242 11.743 4.249 29.012 2.761 34.237-.264.925-1.138 1.525-2.096 1.44-5.469-.487-23.371-2.957-31.627-14.719z" fill="#b7e546"></path><path d="m218.723 223.834c-.46 4.66-1.42 8.53-2 10.57-.27.93-1.14 1.53-2.1 1.44-5.47-.49-23.37-2.96-31.63-14.72-8.24-11.74-4.25-29.01-2.76-34.24.27-.92 1.14-1.52 2.1-1.44 1.51.13 3.96.42 6.9 1.01-.74 7.29-.27 16.51 4.76 23.67 5.98 8.52 17.02 12.16 24.73 13.71z" fill="#abd641"></path><path d="m287.705 315.406c13.324 5.321 19.428 21.962 21.04 27.149.285.919-.118 1.899-.967 2.352-4.845 2.584-21.181 10.309-34.527 4.979-13.324-5.321-19.428-21.962-21.04-27.149-.285-.919.118-1.899.967-2.352 4.845-2.583 21.182-10.309 34.527-4.979z" fill="#b7e546"></path><path d="m307.773 344.904c-4.84 2.59-21.18 10.31-34.52 4.98-13.33-5.32-19.43-21.96-21.04-27.15-.29-.92.12-1.9.96-2.35 1.23-.65 3.21-1.64 5.69-2.66 3.4 6.24 8.69 13.09 16.39 16.16 9.95 3.98 21.58.69 28.85-2.31 2.48 4.56 3.96 8.79 4.64 10.98.29.92-.12 1.9-.97 2.35z" fill="#abd641"></path><path d="m180.845 271.259c14.154 2.344 23.681 17.291 26.367 22.013.476.836.291 1.88-.441 2.504-4.179 3.562-18.482 14.607-32.659 12.259-14.154-2.344-23.681-17.291-26.367-22.013-.476-.836-.291-1.88.441-2.504 4.179-3.562 18.481-14.607 32.659-12.259z" fill="#b7e546"></path><path d="m206.773 295.774c-4.18 3.56-18.48 14.61-32.66 12.26-14.16-2.34-23.68-17.29-26.37-22.01-.47-.84-.29-1.88.44-2.51 1.27-1.08 3.47-2.84 6.31-4.72 4.55 6.25 12.37 14.55 22.62 16.24 9.88 1.64 19.82-3.23 26.35-7.54 1.74 2.39 3 4.47 3.75 5.78.47.83.29 1.88-.44 2.5z" fill="#abd641"></path><path d="m374.869 124.996c-2.331 14.156-17.269 23.698-21.988 26.388-.836.476-1.88.293-2.505-.438-3.566-4.176-14.624-18.468-12.29-32.648 2.331-14.156 17.269-23.698 21.988-26.388.836-.476 1.88-.293 2.505.438 3.566 4.176 14.625 18.468 12.29 32.648z" fill="#b7e546"></path><path d="m374.873 124.994c-2.33 14.16-17.27 23.7-21.99 26.39-.84.48-1.88.29-2.51-.44-3.56-4.18-14.62-18.47-12.29-32.65.48-2.91 1.49-5.62 2.84-8.12 1.23 11.67 9.46 22.27 12.45 25.77.63.73 1.67.92 2.51.44 3.75-2.14 13.95-8.6 19.15-18.27.24 2.27.22 4.58-.16 6.88z" fill="#abd641"></path><g><g><path d="m103.503 322.824c-12.406 0-22.5-10.094-22.5-22.5s10.094-22.5 22.5-22.5 22.5 10.094 22.5 22.5-10.093 22.5-22.5 22.5z" fill="#61aab8"></path></g><g><path d="m143.503 181.824c-12.406 0-22.5-10.093-22.5-22.5s10.094-22.5 22.5-22.5 22.5 10.093 22.5 22.5-10.093 22.5-22.5 22.5z" fill="#61aab8"></path></g><g><path d="m408.503 175.824c-12.406 0-22.5-10.093-22.5-22.5s10.094-22.5 22.5-22.5 22.5 10.093 22.5 22.5-10.093 22.5-22.5 22.5z" fill="#61aab8"></path></g><g><path d="m316.503 418.824c-12.406 0-22.5-10.094-22.5-22.5s10.094-22.5 22.5-22.5 22.5 10.094 22.5 22.5-10.093 22.5-22.5 22.5z" fill="#61aab8"></path></g><g><path d="m209.503 369.824c-12.406 0-22.5-10.094-22.5-22.5s10.094-22.5 22.5-22.5 22.5 10.094 22.5 22.5-10.093 22.5-22.5 22.5z" fill="#61aab8"></path></g></g><g><g><path d="m120.503 306.824c-12.41 0-22.5-10.09-22.5-22.5 0-2.08.28-4.1.82-6.01-10.17 2.16-17.82 11.2-17.82 22.01 0 12.41 10.09 22.5 22.5 22.5 10.33 0 19.05-6.99 21.68-16.49-1.51.32-3.08.49-4.68.49z" fill="#5595a2"></path></g><g><path d="m160.503 165.824c-12.41 0-22.5-10.09-22.5-22.5 0-2.08.28-4.1.82-6.01-10.17 2.16-17.82 11.2-17.82 22.01 0 12.41 10.09 22.5 22.5 22.5 10.33 0 19.05-6.99 21.68-16.49-1.51.32-3.08.49-4.68.49z" fill="#5595a2"></path></g><g><path d="m425.503 159.824c-12.41 0-22.5-10.09-22.5-22.5 0-2.08.28-4.1.82-6.01-10.17 2.16-17.82 11.2-17.82 22.01 0 12.41 10.09 22.5 22.5 22.5 10.33 0 19.05-6.99 21.68-16.49-1.51.32-3.08.49-4.68.49z" fill="#5595a2"></path></g><g><path d="m333.503 402.824c-12.41 0-22.5-10.09-22.5-22.5 0-2.08.28-4.1.82-6.01-10.17 2.16-17.82 11.2-17.82 22.01 0 12.41 10.09 22.5 22.5 22.5 10.33 0 19.05-6.99 21.68-16.49-1.51.32-3.08.49-4.68.49z" fill="#5595a2"></path></g><g><path d="m226.503 353.824c-12.41 0-22.5-10.09-22.5-22.5 0-2.08.28-4.1.82-6.01-10.17 2.16-17.82 11.2-17.82 22.01 0 12.41 10.09 22.5 22.5 22.5 10.33 0 19.05-6.99 21.68-16.49-1.51.32-3.08.49-4.68.49z" fill="#5595a2"></path></g></g></g><g><path d="m508.477 157.353c-24.527-74.707-84.635-133.645-159.892-156.78-6.536-2.161-14.116 2.022-15.768 8.709l-37.472 139.656c-1.073 4.001 1.3 8.114 5.301 9.188 3.996 1.074 8.112-1.299 9.188-5.3l26.381-98.322c55.558 19.824 99.976 63.416 120.84 118.632l-72.375 26.568c-8.803-15.222-29.13-22.104-45.406-15.235-16.303 6.507-25.475 23.553-22.782 40.265l-28.787 10.566 13.045-48.617c1.073-4.001-1.3-8.114-5.301-9.188-4-1.073-8.113 1.299-9.188 5.3l-14.294 53.273c-2.877 9.405 7.318 18.671 16.381 14.973 64.107-23.53 148.29-54.432 212.563-78.026 6.367-2.337 9.689-9.217 7.566-15.662zm-168.356-117.398 6.512-24.272c68.879 22.091 123.503 75.687 146.833 144.087l-22.315 8.191c-22.539-59.763-70.763-106.882-131.03-128.006zm4.716 158.443c8.724-3.656 19.526-.77 25.324 6.634l-39.141 14.368c-.217-8.933 5.078-17.514 13.817-21.002z"></path><path d="m483.132 210.413c-.822-3.472-3.098-6.433-6.243-8.124-3.148-1.693-6.879-1.958-10.233-.725l-90.678 33.288-45.938 16.861c-.019.007-.037.016-.056.024l-36.459 13.384c-3.888 1.428-5.883 5.737-4.456 9.626 1.428 3.887 5.734 5.882 9.626 4.456l30.12-11.057c3.902 6.446 9.668 11.54 16.713 14.636 4.77 2.096 9.817 3.146 14.874 3.146 4.541 0 9.089-.848 13.446-2.547 16.425-6.383 25.759-23.452 23.111-40.252l34.512-12.67c2.332 11.93 3.532 24.122 3.532 36.364 0 104.215-84.785 189-189 189s-189-84.785-189-189 84.785-189 189-189c12.258 0 24.471 1.202 36.417 3.541l-54.421 202.803c-1.216 4.526.179 9.303 3.637 12.466 2.35 2.147 5.354 3.28 8.42 3.279 1.448 0 2.91-.253 4.323-.771l21.455-7.876c3.888-1.428 5.883-5.737 4.456-9.626-1.428-3.887-5.736-5.879-9.626-4.456l-16.929 6.215 64.241-239.396c1.928-6.653-2.595-14.092-9.385-15.453-20.309-4.501-41.27-6.37-62.308-5.562-38.91 1.502-77.258 12.391-110.896 31.487-3.603 2.045-4.865 6.623-2.82 10.225s6.623 4.864 10.225 2.82c32.013-18.173 67.026-28.112 104.07-29.542 18.868-.725 37.684.844 55.947 4.67l-6.492 24.193c-13.218-2.658-26.743-4.017-40.315-4.017-112.486 0-204 91.514-204 204s91.514 204 204 204 204-91.514 204-204c0-14.013-1.441-27.974-4.273-41.598l23.439-8.605c3.019 13.502 4.819 27.402 5.359 41.362 2.36 61.118-19.224 119.498-60.777 164.387s-98.098 70.909-159.217 73.271c-126.174 4.854-232.794-93.818-237.667-219.995-2.828-73.243 29.983-143.992 87.771-189.254 3.261-2.554 3.834-7.268 1.279-10.529-2.555-3.263-7.27-3.833-10.529-1.28-29.784 23.329-54.081 53.686-70.263 87.79-16.722 35.244-24.76 74.613-23.245 113.852 2.515 65.127 30.24 125.377 78.069 169.649 45.465 42.084 103.912 64.944 165.52 64.942 3.204 0 6.425-.062 9.645-.187 65.123-2.515 125.371-30.24 169.646-78.068 44.276-47.829 67.274-110.034 64.759-175.156-.614-15.877-2.763-31.687-6.386-46.991zm-114.723 58.99c-.003.001-.007.002-.01.004-5.476 2.134-11.454 2.008-16.835-.357-3.248-1.427-6.041-3.566-8.212-6.24l39.062-14.34c.162 8.958-5.215 17.52-14.005 20.933z"></path><path d="m210.003 166.824c18.196 0 33-14.804 33-33s-14.804-33-33-33-33 14.804-33 33 14.804 33 33 33zm0-51c9.925 0 18 8.075 18 18s-8.075 18-18 18-18-8.075-18-18 8.076-18 18-18z"></path><path d="m246.003 439.824c18.196 0 33-14.804 33-33s-14.804-33-33-33-33 14.804-33 33 14.804 33 33 33zm0-51c9.925 0 18 8.075 18 18s-8.075 18-18 18-18-8.075-18-18 8.076-18 18-18z"></path><path d="m90.003 229.824c0 18.196 14.804 33 33 33s33-14.804 33-33-14.804-33-33-33-33 14.804-33 33zm33-18c9.925 0 18 8.075 18 18s-8.075 18-18 18-18-8.075-18-18 8.076-18 18-18z"></path><path d="m143.003 392.824c18.196 0 33-14.804 33-33s-14.804-33-33-33-33 14.804-33 33 14.804 33 33 33zm0-51c9.925 0 18 8.075 18 18s-8.075 18-18 18-18-8.075-18-18 8.076-18 18-18z"></path><path d="m365.445 320.89c4.127-.353 7.188-3.983 6.835-8.11-.353-4.128-3.993-7.193-8.11-6.835-16.916 1.443-30.166 15.887-30.166 32.88 0 18.196 14.804 33 33 33s33-14.804 33-33c.575-5.437-2.424-11.698-8.706-10.822-5.429.668-7.219 6.041-6.294 10.822 0 9.925-8.075 18-18 18s-18-8.075-18-18c-.001-9.27 7.221-17.148 16.441-17.935z"></path><path d="m173.622 182.889c-.358 1.038-8.639 25.625 3.236 42.544 11.816 16.836 38.003 17.979 39.111 18.02.093.003.184.005.275.005 3.188 0 6.041-2.021 7.088-5.053.358-1.039 8.64-25.626-3.235-42.546-11.818-16.835-38.004-17.978-39.112-18.019-3.308-.132-6.286 1.93-7.363 5.049zm12.733 10.643c7.006 1.249 16.833 4.345 21.466 10.944 4.569 6.51 4.056 16.476 2.78 23.285-7.006-1.249-16.833-4.345-21.465-10.945-4.569-6.51-4.055-16.475-2.781-23.284z"></path><path d="m290.488 308.441c-19.105-7.63-41.648 5.738-42.599 6.312-2.826 1.703-4.207 5.054-3.402 8.254.269 1.065 6.786 26.179 25.982 33.845 4.222 1.687 8.609 2.347 12.896 2.347 15.114 0 28.962-8.212 29.702-8.658 2.826-1.704 4.207-5.054 3.402-8.254-.267-1.066-6.785-26.179-25.981-33.846zm-14.455 34.481c-7.386-2.95-12.407-11.573-15.065-17.971 6.549-2.785 16.47-5.569 23.956-2.58 7.387 2.95 12.408 11.573 15.066 17.971-6.549 2.786-16.467 5.571-23.957 2.58z"></path><path d="m213.144 300.145c2.396-2.27 3.027-5.838 1.555-8.791-.489-.983-12.235-24.117-32.628-27.494-20.296-3.36-39.452 14.526-40.258 15.289-2.396 2.27-3.027 5.838-1.556 8.791.49.983 12.235 24.117 32.629 27.494 1.74.288 3.471.42 5.184.42 18.259-.001 34.338-15.012 35.074-15.709zm-56.372-13.836c5.801-4.124 14.894-8.965 22.848-7.65 7.847 1.299 14.599 8.646 18.565 14.326-5.8 4.124-14.899 8.967-22.848 7.65-7.847-1.299-14.598-8.647-18.565-14.326z"></path><path d="m351.457 159.66c1.137 0 2.283-.259 3.349-.791.983-.491 24.105-12.258 27.464-32.655 3.342-20.296-14.564-39.438-15.328-40.243-2.271-2.393-5.84-3.021-8.792-1.547-.983.491-24.104 12.258-27.463 32.655-3.342 20.296 14.563 39.438 15.327 40.243 1.451 1.53 3.432 2.338 5.443 2.338zm-5.969-40.144c1.292-7.848 8.633-14.606 14.308-18.578 4.131 5.795 8.983 14.884 7.674 22.84-1.29 7.838-8.615 14.59-14.288 18.564-3.834-5.343-9.073-14.449-7.694-22.826z"></path><path d="m81.003 300.324c0 12.406 10.094 22.5 22.5 22.5s22.5-10.094 22.5-22.5-10.094-22.5-22.5-22.5-22.5 10.094-22.5 22.5zm22.5-7.5c4.136 0 7.5 3.364 7.5 7.5s-3.364 7.5-7.5 7.5-7.5-3.364-7.5-7.5 3.365-7.5 7.5-7.5z"></path><path d="m143.503 181.824c12.406 0 22.5-10.093 22.5-22.5s-10.094-22.5-22.5-22.5-22.5 10.093-22.5 22.5 10.094 22.5 22.5 22.5zm0-30c4.136 0 7.5 3.364 7.5 7.5s-3.364 7.5-7.5 7.5-7.5-3.364-7.5-7.5 3.365-7.5 7.5-7.5z"></path><path d="m431.003 153.324c0-12.407-10.094-22.5-22.5-22.5s-22.5 10.093-22.5 22.5 10.094 22.5 22.5 22.5 22.5-10.093 22.5-22.5zm-30 0c0-4.136 3.364-7.5 7.5-7.5s7.5 3.364 7.5 7.5-3.364 7.5-7.5 7.5-7.5-3.364-7.5-7.5z"></path><path d="m316.503 373.824c-12.406 0-22.5 10.094-22.5 22.5s10.094 22.5 22.5 22.5 22.5-10.094 22.5-22.5-10.093-22.5-22.5-22.5zm0 30c-4.136 0-7.5-3.364-7.5-7.5s3.364-7.5 7.5-7.5 7.5 3.364 7.5 7.5-3.364 7.5-7.5 7.5z"></path><path d="m209.503 369.824c12.406 0 22.5-10.094 22.5-22.5s-10.094-22.5-22.5-22.5-22.5 10.094-22.5 22.5 10.094 22.5 22.5 22.5zm0-30c4.136 0 7.5 3.364 7.5 7.5s-3.364 7.5-7.5 7.5-7.5-3.364-7.5-7.5 3.365-7.5 7.5-7.5z"></path></g></g></svg>