<svg height="512.00052pt" viewBox="0 0 512.00052 512.00052" width="512.00052pt" xmlns="http://www.w3.org/2000/svg" xmlns:xlink="http://www.w3.org/1999/xlink" id="fi_1147593"><linearGradient id="a"><stop offset="0" stop-color="#acc130"></stop><stop offset="1" stop-color="#97a03b"></stop></linearGradient><linearGradient id="b" gradientTransform="matrix(.709873 .709873 -.709873 .709873 262.861809 -103.283373)" gradientUnits="userSpaceOnUse" x1="240.1236" x2="276.0144" xlink:href="#a" y1="577.0961" y2="577.0961"></linearGradient><linearGradient id="c"><stop offset="0" stop-color="#ffe548"></stop><stop offset="1" stop-color="#ffb211"></stop></linearGradient><linearGradient id="d" gradientTransform="matrix(.709873 .709873 -.709873 .709873 262.861809 -103.283373)" gradientUnits="userSpaceOnUse" x1="201.2657" x2="391.2478" xlink:href="#c" y1="250.1425" y2="250.1425"></linearGradient><linearGradient id="e" gradientTransform="matrix(.709873 .709873 -.709873 .709873 262.861809 -103.283373)" gradientUnits="userSpaceOnUse" x1="200.8839" x2="392.41" xlink:href="#c" y1="545.7477" y2="545.7477"></linearGradient><linearGradient id="f" gradientTransform="matrix(.709873 .709873 -.709873 .709873 262.861809 -103.283373)" gradientUnits="userSpaceOnUse" x1="200.884" x2="392.4098" xlink:href="#c" y1="-45.4626" y2="-45.4626"></linearGradient><linearGradient id="g" gradientTransform="matrix(.709873 .709873 -.709873 .709873 262.861809 -103.283373)" gradientUnits="userSpaceOnUse" x1="277.6874" x2="319.2733" xlink:href="#c" y1="-53.1723" y2="-19.7942"></linearGradient><linearGradient id="h" gradientTransform="matrix(.709873 .709873 -.709873 .709873 262.861809 -103.283373)" gradientUnits="userSpaceOnUse" x1="169.1071" x2="576.1606" xlink:href="#c" y1="489.3504" y2="489.3504"></linearGradient><linearGradient id="i" gradientTransform="matrix(.709873 .709873 -.709873 .709873 262.861809 -103.283373)" gradientUnits="userSpaceOnUse" x1="125.9315" x2="534.3921" xlink:href="#c" y1="10.9364" y2="10.9364"></linearGradient><linearGradient id="j" gradientTransform="matrix(.709873 .709873 -.709873 .709873 262.861809 -103.283373)" gradientUnits="userSpaceOnUse" x1="126.1048" x2="533.1584" xlink:href="#c" y1="489.3504" y2="489.3504"></linearGradient><linearGradient id="k" gradientTransform="matrix(.709873 .709873 -.709873 .709873 262.861809 -103.283373)" gradientUnits="userSpaceOnUse" x1="290.07" x2="321.4927" xlink:href="#c" y1="-11.4064" y2="9.0549"></linearGradient><linearGradient id="l" gradientTransform="matrix(.709873 .709873 -.709873 .709873 262.861809 -103.283373)" gradientUnits="userSpaceOnUse" x1="117.9908" x2="564.4139" xlink:href="#c" y1="432.4678" y2="432.4678"></linearGradient><linearGradient id="m" gradientTransform="matrix(.709873 .709873 -.709873 .709873 262.861809 -103.283373)" gradientUnits="userSpaceOnUse" x1="301.6332" x2="342.556" xlink:href="#c" y1="42.8529" y2="67.6988"></linearGradient><linearGradient id="n" gradientTransform="matrix(.709873 .709873 -.709873 .709873 262.861809 -103.283373)" gradientUnits="userSpaceOnUse" x1="328.9974" x2="348.728" xlink:href="#c" y1="408.4196" y2="440.5731"></linearGradient><linearGradient id="o" gradientTransform="matrix(.709873 .709873 -.709873 .709873 262.861809 -103.283373)" gradientUnits="userSpaceOnUse" x1="117.9926" x2="564.4022" xlink:href="#c" y1="67.8169" y2="67.8169"></linearGradient><linearGradient id="p" gradientTransform="matrix(.709873 .709873 -.709873 .709873 262.861809 -103.283373)" gradientUnits="userSpaceOnUse" x1="112.7595" x2="602.5709" xlink:href="#c" y1="128.8952" y2="128.8952"></linearGradient><linearGradient id="q" gradientTransform="matrix(.709873 .709873 -.709873 .709873 262.861809 -103.283373)" gradientUnits="userSpaceOnUse" x1="112.7589" x2="602.5768" xlink:href="#c" y1="371.3897" y2="371.3897"></linearGradient><linearGradient id="r" gradientTransform="matrix(.709873 .709873 -.709873 .709873 262.861809 -103.283373)" gradientUnits="userSpaceOnUse" x1="315.7125" x2="358.8275" xlink:href="#c" y1="106.4217" y2="131.2676"></linearGradient><linearGradient id="s" gradientTransform="matrix(.709873 .709873 -.709873 .709873 262.861809 -103.283373)" gradientUnits="userSpaceOnUse" x1="335.6061" x2="354.606" xlink:href="#c" y1="341.8994" y2="370.3991"></linearGradient><linearGradient id="t" gradientTransform="matrix(.709873 .709873 -.709873 .709873 262.861809 -103.283373)" gradientUnits="userSpaceOnUse" x1="109.8034" x2="639.5443" xlink:href="#c" y1="189.0471" y2="189.0471"></linearGradient><linearGradient id="u" gradientTransform="matrix(.709873 .709873 -.709873 .709873 262.861809 -103.283373)" gradientUnits="userSpaceOnUse" x1="109.8034" x2="639.5436" xlink:href="#c" y1="311.2379" y2="311.2379"></linearGradient><linearGradient id="v" gradientTransform="matrix(.709873 .709873 -.709873 .709873 262.861809 -103.283373)" gradientUnits="userSpaceOnUse" x1="314.4362" x2="359.7435" xlink:href="#c" y1="152.7406" y2="187.8172"></linearGradient><linearGradient id="w" gradientTransform="matrix(.709873 .709873 -.709873 .709873 262.861809 -103.283373)" gradientUnits="userSpaceOnUse" x1="336.3781" x2="364.147" xlink:href="#c" y1="276.1966" y2="314.927"></linearGradient><linearGradient id="x" gradientTransform="matrix(.709873 .709873 -.709873 .709873 262.861809 -103.283373)" gradientUnits="userSpaceOnUse" x1="108.2499" x2="669.5806" xlink:href="#c" y1="250.1425" y2="250.1425"></linearGradient><linearGradient id="y" gradientTransform="matrix(.709873 .709873 -.709873 .709873 262.861809 -103.283373)" gradientUnits="userSpaceOnUse" x1="336.2239" x2="363.6154" xlink:href="#c" y1="222.8902" y2="250.2816"></linearGradient><linearGradient id="z" gradientTransform="matrix(.709873 .709873 -.709873 .709873 262.861809 -103.283373)" gradientUnits="userSpaceOnUse" x1="256.1174" x2="281.2879" xlink:href="#c" y1="-55.5411" y2="-33.6537"></linearGradient><linearGradient id="A" gradientTransform="matrix(.709873 .709873 -.709873 .709873 262.861809 -103.283373)" gradientUnits="userSpaceOnUse" x1="217.0391" x2="343.2123" xlink:href="#c" y1="546.9797" y2="546.9797"></linearGradient><linearGradient id="B" gradientTransform="matrix(.709873 .709873 -.709873 .709873 262.861809 -103.283373)" gradientUnits="userSpaceOnUse" x1="221.539" x2="243.9735" xlink:href="#c" y1="-56.5609" y2="-26.4658"></linearGradient><linearGradient id="C" gradientTransform="matrix(.709873 .709873 -.709873 .709873 262.861809 -103.283373)" gradientUnits="userSpaceOnUse" x1="270.0481" x2="300.0094" xlink:href="#c" y1="-6.8325" y2="15.0903"></linearGradient><linearGradient id="D" gradientTransform="matrix(.709873 .709873 -.709873 .709873 262.861809 -103.283373)" gradientUnits="userSpaceOnUse" x1="202.6178" x2="229.9771" xlink:href="#c" y1="1.7327" y2="45.5075"></linearGradient><linearGradient id="E" gradientTransform="matrix(.709873 .709873 -.709873 .709873 262.861809 -103.283373)" gradientUnits="userSpaceOnUse" x1="223.5477" x2="346.1721" xlink:href="#c" y1="493.5967" y2="493.5967"></linearGradient><linearGradient id="F" gradientTransform="matrix(.709873 .709873 -.709873 .709873 262.861809 -103.283373)" gradientUnits="userSpaceOnUse" x1="212.2851" x2="334.9095" xlink:href="#c" y1="493.5967" y2="493.5967"></linearGradient><linearGradient id="G" gradientTransform="matrix(.709873 .709873 -.709873 .709873 262.861809 -103.283373)" gradientUnits="userSpaceOnUse" x1="273.2305" x2="303.1918" xlink:href="#c" y1="39.5435" y2="66.5817"></linearGradient><linearGradient id="H" gradientTransform="matrix(.709873 .709873 -.709873 .709873 262.861809 -103.283373)" gradientUnits="userSpaceOnUse" x1="186.5912" x2="237.4792" xlink:href="#c" y1="50.8581" y2="114.8784"></linearGradient><linearGradient id="I" gradientTransform="matrix(.709873 .709873 -.709873 .709873 262.861809 -103.283373)" gradientUnits="userSpaceOnUse" x1="221.2247" x2="350.5013" xlink:href="#c" y1="437.4633" y2="437.4633"></linearGradient><linearGradient id="J" gradientTransform="matrix(.709873 .709873 -.709873 .709873 262.861809 -103.283373)" gradientUnits="userSpaceOnUse" x1="194.4622" x2="250.8219" xlink:href="#c" y1="434.6333" y2="488.2571"></linearGradient><linearGradient id="K" gradientTransform="matrix(.709873 .709873 -.709873 .709873 262.861809 -103.283373)" gradientUnits="userSpaceOnUse" x1="289.4577" x2="308.5717" xlink:href="#c" y1="344.0002" y2="378.7528"></linearGradient><linearGradient id="L" gradientTransform="matrix(.709873 .709873 -.709873 .709873 262.861809 -103.283373)" gradientUnits="userSpaceOnUse" x1="185.7412" x2="256.328" xlink:href="#c" y1="371.7094" y2="432.4467"></linearGradient><linearGradient id="M" gradientTransform="matrix(.709873 .709873 -.709873 .709873 262.861809 -103.283373)" gradientUnits="userSpaceOnUse" x1="182.402" x2="249.7055" xlink:href="#c" y1="116.0302" y2="196.466"></linearGradient><linearGradient id="N" gradientTransform="matrix(.709873 .709873 -.709873 .709873 262.861809 -103.283373)" gradientUnits="userSpaceOnUse" x1="281.8615" x2="319.1304" xlink:href="#c" y1="104.1657" y2="135.5885"></linearGradient><linearGradient id="O" gradientTransform="matrix(.709873 .709873 -.709873 .709873 262.861809 -103.283373)" gradientUnits="userSpaceOnUse" x1="181.9599" x2="248.169" xlink:href="#c" y1="182.7331" y2="245.112"></linearGradient><linearGradient id="P" gradientTransform="matrix(.709873 .709873 -.709873 .709873 262.861809 -103.283373)" gradientUnits="userSpaceOnUse" x1="290.7239" x2="321.1324" xlink:href="#c" y1="292.3249" y2="325.3398"></linearGradient><linearGradient id="Q" gradientTransform="matrix(.709873 .709873 -.709873 .709873 262.861809 -103.283373)" gradientUnits="userSpaceOnUse" x1="277.036" x2="312.8434" xlink:href="#c" y1="160.931" y2="188.6999"></linearGradient><linearGradient id="R" gradientTransform="matrix(.709873 .709873 -.709873 .709873 262.861809 -103.283373)" gradientUnits="userSpaceOnUse" x1="185.5896" x2="253.9877" xlink:href="#c" y1="313.0285" y2="375.4075"></linearGradient><linearGradient id="S" gradientTransform="matrix(.709873 .709873 -.709873 .709873 262.861809 -103.283373)" gradientUnits="userSpaceOnUse" x1="180.5779" x2="269.222" xlink:href="#c" y1="246.8904" y2="312.5527"></linearGradient><linearGradient id="T" gradientTransform="matrix(.709873 .709873 -.709873 .709873 262.861809 -103.283373)" gradientUnits="userSpaceOnUse" x1="284.8757" x2="308.9909" xlink:href="#c" y1="231.5965" y2="248.404"></linearGradient><linearGradient id="U" gradientTransform="matrix(.709873 .709873 -.709873 .709873 262.861809 -103.283373)" gradientUnits="userSpaceOnUse" x1="232.4397" x2="255.9686" xlink:href="#c" y1="-56.8948" y2="-36.649"></linearGradient><linearGradient id="V" gradientTransform="matrix(.709873 .709873 -.709873 .709873 262.861809 -103.283373)" gradientUnits="userSpaceOnUse" x1="235.466" x2="287.0964" xlink:href="#c" y1="547.5441" y2="547.5441"></linearGradient><linearGradient id="W" gradientTransform="matrix(.709873 .709873 -.709873 .709873 262.861809 -103.283373)" gradientUnits="userSpaceOnUse" x1="234.7869" x2="289.1644" xlink:href="#c" y1="495.3088" y2="495.3088"></linearGradient><linearGradient id="X" gradientTransform="matrix(.709873 .709873 -.709873 .709873 262.861809 -103.283373)" gradientUnits="userSpaceOnUse" x1="221.8721" x2="260.6025" xlink:href="#c" y1="-16.0597" y2="16.8245"></linearGradient><linearGradient id="Y" gradientTransform="matrix(.709873 .709873 -.709873 .709873 262.861809 -103.283373)" gradientUnits="userSpaceOnUse" x1="234.4986" x2="290.0425" xlink:href="#c" y1="439.4632" y2="439.4632"></linearGradient><linearGradient id="Z" gradientTransform="matrix(.709873 .709873 -.709873 .709873 262.861809 -103.283373)" gradientUnits="userSpaceOnUse" x1="226.9088" x2="275.1391" xlink:href="#c" y1="48.1671" y2="78.1285"></linearGradient><linearGradient id="aa" gradientTransform="matrix(.709873 .709873 -.709873 .709873 262.861809 -103.283373)" gradientUnits="userSpaceOnUse" x1="234.2373" x2="290.8382" xlink:href="#c" y1="377.3637" y2="377.3637"></linearGradient><linearGradient id="ab" gradientTransform="matrix(.709873 .709873 -.709873 .709873 262.861809 -103.283373)" gradientUnits="userSpaceOnUse" x1="218.7477" x2="278.6703" xlink:href="#c" y1="104.9075" y2="142.1764"></linearGradient><linearGradient id="ac" gradientTransform="matrix(.709873 .709873 -.709873 .709873 262.861809 -103.283373)" gradientUnits="userSpaceOnUse" x1="225.6423" x2="278.64" xlink:href="#c" y1="293.7675" y2="342.4212"></linearGradient><linearGradient id="ad" gradientTransform="matrix(.709873 .709873 -.709873 .709873 262.861809 -103.283373)" gradientUnits="userSpaceOnUse" x1="221.0767" x2="276.6809" xlink:href="#c" y1="163.2833" y2="209.3305"></linearGradient><linearGradient id="ae" gradientTransform="matrix(.709873 .709873 -.709873 .709873 262.861809 -103.283373)" gradientUnits="userSpaceOnUse" x1="227.4831" x2="273.5211" xlink:href="#c" y1="234.0068" y2="269.8142"></linearGradient><linearGradient id="af"><stop offset="0" stop-color="#97a03b" stop-opacity="0"></stop><stop offset="1" stop-color="#575c55"></stop></linearGradient><linearGradient id="ag" gradientTransform="matrix(.709873 .709873 -.709873 .709873 262.861809 -103.283373)" gradientUnits="userSpaceOnUse" x1="269.6959" x2="225.991" xlink:href="#af" y1="589.8926" y2="527.1987"></linearGradient><linearGradient id="ah" gradientTransform="matrix(.709873 .709873 -.709873 .709873 262.861809 -103.283373)" gradientUnits="userSpaceOnUse" x1="277.47" x2="131.3972" y1="342.5427" y2="354.9451"><stop offset="0" stop-color="#ffb211" stop-opacity="0"></stop><stop offset=".1691" stop-color="#ffac13" stop-opacity=".168627"></stop><stop offset=".3838" stop-color="#ff9d1a" stop-opacity=".384314"></stop><stop offset=".6232" stop-color="#ff8326" stop-opacity=".623529"></stop><stop offset=".8787" stop-color="#ff5f35" stop-opacity=".878431"></stop><stop offset="1" stop-color="#ff4b3e"></stop></linearGradient><linearGradient id="ai" gradientTransform="matrix(.709873 .709873 -.709873 .709873 262.861809 -103.283373)" gradientUnits="userSpaceOnUse" x1="319.1975" x2="418.2806" xlink:href="#a" y1="336.2544" y2="372.4063"></linearGradient><linearGradient id="aj" gradientTransform="matrix(.709873 .709873 -.709873 .709873 262.861809 -103.283373)" gradientUnits="userSpaceOnUse" x1="371.6644" x2="206.0106" xlink:href="#af" y1="339.7643" y2="339.7643"></linearGradient><linearGradient id="ak" gradientTransform="matrix(.709873 .709873 -.709873 .709873 262.861809 -103.283373)" gradientUnits="userSpaceOnUse" x1="393.1471" x2="181.0278" xlink:href="#af" y1="313.6263" y2="409.4634"></linearGradient><linearGradient id="al" gradientTransform="matrix(-.709873 -.709873 -.709873 .709873 710.366374 344.221192)" gradientUnits="userSpaceOnUse" x1="453.1405" x2="552.2236" xlink:href="#a" y1="336.2544" y2="372.4063"></linearGradient><linearGradient id="am" gradientTransform="matrix(-.709873 -.709873 -.709873 .709873 710.366374 344.221192)" gradientUnits="userSpaceOnUse" x1="505.6074" x2="339.9536" xlink:href="#af" y1="339.7643" y2="339.7643"></linearGradient><linearGradient id="an" gradientTransform="matrix(-.709873 -.709873 -.709873 .709873 710.366374 344.221192)" gradientUnits="userSpaceOnUse" x1="527.0901" x2="314.9708" xlink:href="#af" y1="313.6263" y2="409.4634"></linearGradient><path d="m69.472656 489.390625-46.863281-46.863281-4.578125 4.578125c-2.691406 2.691406-4.1875 6.347656-4.15625 10.152343l.015625 1.582032c.035156 3.808594-1.460937 7.464844-4.152344 10.15625-7.511719 7.507812-7.511719 19.6875 0 27.195312l6.070313 6.070313c7.511718 7.511719 19.6875 7.511719 27.199218 0 2.6875-2.6875 6.347657-4.183594 10.152344-4.152344l1.582032.015625c3.804687.035156 7.464843-1.464844 10.152343-4.152344zm0 0" fill="url(#b)"></path><path d="m345.453125 334.449219c-126.945313 126.945312-267.441406 192.269531-313.804687 145.90625-46.363282-46.367188 18.960937-186.863281 145.90625-313.808594 126.945312-126.945313 267.441406-192.269531 313.804687-145.90625s-18.960937 186.859375-145.90625 313.808594zm0 0" fill="url(#d)"></path><path d="m31.648438 480.355469c17.167968 17.167969 43.386718 23.257812 75.195312 19.636719 9.53125-1.085938 12.878906-13.175782 5.304688-19.066407-.082032-.0625-.164063-.125-.246094-.191406-2.988282-2.328125-6.964844-2.921875-10.496094-1.554687-32.382812 12.539062-57.148438 13.785156-69.757812 1.175781zm0 0" fill="url(#e)"></path><path d="m491.359375 20.640625c-17.167969-17.167969-43.386719-23.257813-75.195313-19.636719-9.535156 1.085938-12.882812 13.171875-5.304687 19.066406.082031.0625.164063.125.246094.191407 2.984375 2.324219 6.964843 2.921875 10.496093 1.554687 32.382813-12.539062 57.148438-13.785156 69.757813-1.175781zm0 0" fill="url(#f)"></path><path d="m491.738281 100.894531c.066407.085938.128907.164063.195313.246094 5.890625 7.578125 17.976562 4.230469 19.0625-5.304687 3.621094-31.808594-2.464844-58.023438-19.636719-75.195313 12.609375 12.609375 11.367187 37.375-1.171875 69.757813-1.367188 3.53125-.773438 7.511718 1.550781 10.496093zm0 0" fill="url(#g)"></path><path d="m31.265625 400.097656c-.0625-.082031-.125-.164062-.191406-.246094-5.890625-7.574218-17.976563-4.226562-19.0625 5.308594-3.621094 31.808594 2.464843 58.023438 19.636719 75.195313-12.609376-12.609375-11.367188-37.375 1.171874-69.761719 1.367188-3.53125.773438-7.507812-1.554687-10.496094zm0 0" fill="url(#e)"></path><path d="m148.339844 456.191406c-6.925782 3.988282-13.667969 7.648438-20.199219 10.953125-9.5625 4.839844-10.554687 18.101563-1.84375 24.34375 3.535156 2.535157 8.019531 3.367188 12.214844 2.214844 8.511719-2.339844 17.289062-5.230469 26.285156-8.648437 10.589844-4.027344 12.457031-18.175782 3.355469-24.929688-1.296875-.964844-2.59375-1.933594-3.890625-2.914062-4.621094-3.496094-10.898438-3.914063-15.921875-1.019532zm0 0" fill="url(#h)"></path><path d="m374.582031 44.851562c7.011719-4.042968 13.835938-7.742187 20.441407-11.082031 9.460937-4.785156 10.492187-17.949219 1.878906-24.128906-.082032-.058594-.164063-.117187-.25-.179687-3.484375-2.496094-7.890625-3.339844-12.027344-2.207032-8.628906 2.367188-17.53125 5.300782-26.65625 8.777344-10.484375 3.996094-12.335938 17.996094-3.324219 24.679688 1.421875 1.054687 2.839844 2.117187 4.257813 3.191406 4.554687 3.449218 10.730468 3.800781 15.679687.949218zm0 0" fill="url(#i)"></path><path d="m54.789062 347.738281c-.980468-1.296875-1.953124-2.59375-2.914062-3.890625-6.753906-9.101562-20.902344-7.234375-24.929688 3.359375-3.421874 8.992188-6.308593 17.769531-8.648437 26.28125-1.152344 4.195313-.320313 8.683594 2.210937 12.214844 6.242188 8.710937 19.503907 7.71875 24.347657-1.839844 3.308593-6.53125 6.964843-13.277343 10.953125-20.203125 2.894531-5.023437 2.476562-11.300781-1.019532-15.921875zm0 0" fill="url(#j)"></path><path d="m468.097656 153.101562c1.074219 1.417969 2.136719 2.835938 3.191406 4.257813 6.683594 9.011719 20.683594 7.160156 24.679688-3.324219 3.476562-9.125 6.410156-18.027344 8.777344-26.660156 1.132812-4.132812.289062-8.542969-2.207032-12.027344-.0625-.082031-.121093-.164062-.179687-.25-6.179687-8.613281-19.34375-7.578125-24.128906 1.878906-3.339844 6.609376-7.039063 13.429688-11.082031 20.441407-2.851563 4.949219-2.5 11.125.949218 15.683593zm0 0" fill="url(#k)"></path><path d="m52.382812 293.273438c-3.65625 6.558593-7.085937 13.0625-10.285156 19.492187-3.121094 6.277344-2.605468 13.761719 1.417969 19.5.078125.105469.152344.214844.230469.324219 7.75 11.035156 24.140625 10.875 31.613281-.351563 3.570313-5.367187 7.308594-10.808593 11.199219-16.320312 4.871094-6.886719 4.582031-16.148438-.601563-22.808594-.5625-.726563-1.128906-1.449219-1.691406-2.175781-8.40625-10.890625-25.179687-9.675782-31.882813 2.339844zm0 0" fill="url(#l)"></path><path d="m470.625 207.714844c3.65625-6.558594 7.085938-13.058594 10.285156-19.488282 3.117188-6.273437 2.605469-13.757812-1.417968-19.496093-.078126-.109375-.152344-.21875-.230469-.324219-7.75-11.035156-24.140625-10.875-31.613281.351562-3.570313 5.367188-7.304688 10.808594-11.195313 16.3125-4.871094 6.894532-4.582031 16.15625.601563 22.816407.5625.722656 1.125 1.449219 1.683593 2.171875 8.410157 10.890625 25.1875 9.675781 31.886719-2.34375zm0 0" fill="url(#m)"></path><path d="m196.082031 425.441406c-5.507812 3.894532-10.953125 7.628906-16.320312 11.203125-11.226563 7.46875-11.386719 23.859375-.351563 31.613281.109375.074219.21875.152344.324219.226563 5.742187 4.027344 13.222656 4.539063 19.5 1.417969 6.429687-3.195313 12.933594-6.625 19.492187-10.285156 12.015626-6.699219 13.230469-23.472657 2.34375-31.882813-.726562-.558594-1.457031-1.125-2.179687-1.691406-6.660156-5.183594-15.917969-5.46875-22.808594-.601563zm0 0" fill="url(#n)"></path><path d="m343.597656 32.738281c-.109375-.078125-.21875-.152343-.328125-.226562-5.738281-4.027344-13.21875-4.539063-19.496093-1.417969-6.429688 3.195312-12.929688 6.625-19.488282 10.28125-12.015625 6.703125-13.234375 23.480469-2.34375 31.890625.726563.558594 1.449219 1.121094 2.171875 1.683594 6.660157 5.183593 15.925781 5.472656 22.816407.601562 5.507812-3.894531 10.949218-7.628906 16.3125-11.199219 11.230468-7.472656 11.390624-23.863281.355468-31.613281zm0 0" fill="url(#o)"></path><path d="m292.179688 65.859375c-.121094-.089844-.242188-.179687-.363282-.269531-7.617187-5.664063-17.953125-5.953125-25.839844-.660156-4.820312 3.238281-9.65625 6.585937-14.503906 10.042968-11.886718 8.484375-12.660156 25.851563-1.484375 35.261719.425781.355469.851563.714844 1.277344 1.074219 8.1875 6.917968 20.15625 6.988281 28.460937.214844 4.324219-3.527344 8.628907-6.976563 12.910157-10.34375 11.488281-9.042969 11.269531-26.585938-.457031-35.320313zm0 0" fill="url(#p)"></path><path d="m122.316406 240.261719c-.359375-.429688-.71875-.855469-1.078125-1.285157-9.40625-11.171874-26.773437-10.402343-35.257812 1.488282-3.457031 4.84375-6.808594 9.679687-10.042969 14.503906-5.292969 7.886719-5.007812 18.222656.660156 25.84375.089844.121094.179688.242188.269532.359375 8.734374 11.730469 26.277343 11.949219 35.316406.457031 3.371094-4.28125 6.820312-8.585937 10.347656-12.910156 6.773438-8.304688 6.699219-20.269531-.214844-28.457031zm0 0" fill="url(#q)"></path><path d="m400.691406 260.734375c.359375.425781.71875.851563 1.078125 1.277344 9.40625 11.175781 26.773438 10.402343 35.261719-1.484375 3.457031-4.84375 6.804688-9.683594 10.042969-14.503906 5.292969-7.886719 5.003906-18.222657-.664063-25.839844-.089844-.121094-.179687-.242188-.269531-.363282-8.734375-11.726562-26.277344-11.945312-35.320313-.457031-3.367187 4.28125-6.8125 8.585938-10.339843 12.910157-6.777344 8.304687-6.703125 20.273437.210937 28.460937zm0 0" fill="url(#r)"></path><path d="m230.824219 435.132812c.121093.089844.242187.179688.363281.269532 7.621094 5.667968 17.957031 5.953125 25.839844.664062 4.824218-3.238281 9.664062-6.589844 14.507812-10.046875 11.886719-8.484375 12.660156-25.851562 1.488282-35.253906-.429688-.363281-.855469-.722656-1.285157-1.082031-8.1875-6.914063-20.152343-6.988282-28.457031-.214844-4.324219 3.527344-8.628906 6.976562-12.910156 10.347656-11.492188 9.039063-11.273438 26.585938.453125 35.316406zm0 0" fill="url(#s)"></path><path d="m243.863281 105.113281c-.125-.101562-.25-.207031-.371093-.308593-8.886719-7.367188-21.769532-7.40625-30.652344-.035157-2.695313 2.238281-5.390625 4.507813-8.078125 6.808594-10.871094 9.296875-11.226563 26-.789063 35.78125.191406.179687.386719.363281.582032.542969 9.171874 8.601562 23.398437 8.675781 32.707031.222656 2.414062-2.195312 4.824219-4.367188 7.234375-6.515625 10.992187-9.808594 10.703125-27.089844-.632813-36.496094zm0 0" fill="url(#t)"></path><path d="m158.910156 193.546875c-.183594-.195313-.363281-.386719-.542968-.582031-9.78125-10.4375-26.484376-10.082032-35.78125.789062-2.300782 2.691406-4.570313 5.382813-6.808594 8.078125-7.371094 8.882813-7.332032 21.765625.035156 30.652344.101562.125.203125.246094.308594.371094 9.40625 11.339843 26.683594 11.625 36.496094.632812 2.148437-2.410156 4.320312-4.820312 6.515624-7.234375 8.453126-9.308594 8.375-23.535156-.222656-32.707031zm0 0" fill="url(#u)"></path><path d="m364.097656 307.449219c.179688.191406.363282.386719.542969.582031 9.777344 10.4375 26.480469 10.078125 35.78125-.789062 2.300781-2.691407 4.570313-5.386719 6.808594-8.082032 7.371093-8.878906 7.332031-21.765625-.035157-30.648437-.101562-.125-.207031-.25-.308593-.371094-9.40625-11.339844-26.6875-11.625-36.496094-.632813-2.152344 2.40625-4.324219 4.820313-6.515625 7.234376-8.453125 9.304687-8.378906 23.53125.222656 32.707031zm0 0" fill="url(#v)"></path><path d="m279.144531 395.878906c.125.105469.25.207032.371094.308594 8.886719 7.367188 21.769531 7.410156 30.648437.035156 2.699219-2.238281 5.390626-4.507812 8.082032-6.808594 10.867187-9.296874 11.226562-26 .789062-35.78125-.195312-.179687-.386718-.359374-.582031-.542968-9.171875-8.597656-23.398437-8.675782-32.707031-.21875-2.414063 2.191406-4.824219 4.363281-7.234375 6.515625-10.992188 9.808593-10.703125 27.085937.632812 36.492187zm0 0" fill="url(#w)"></path><path d="m197.269531 186.261719c1.761719-1.757813 3.523438-3.511719 5.285157-5.25 9.945312-9.820313 9.652343-25.949219-.554688-35.496094-.121094-.113281-.238281-.226563-.359375-.335937-9.582031-8.957032-24.550781-8.851563-33.921875.320312-1.882812 1.847656-3.761719 3.707031-5.636719 5.578125-1.875 1.875-3.734375 3.753906-5.578125 5.636719-9.171875 9.371094-9.277344 24.339844-.324218 33.921875.113281.117187.226562.238281.339843.359375 9.546875 10.207031 25.675781 10.5 35.492188.554687 1.746093-1.765625 3.496093-3.527343 5.257812-5.289062zm0 0" fill="url(#x)"></path><path d="m325.738281 314.730469c-1.761719 1.761719-3.523437 3.511719-5.285156 5.253906-9.945313 9.816406-9.65625 25.949219.550781 35.492187.121094.113282.242188.226563.363282.339844 9.578124 8.953125 24.546874 8.847656 33.917968-.324218 1.882813-1.84375 3.761719-3.703126 5.636719-5.578126s3.734375-3.753906 5.578125-5.636718c9.171875-9.371094 9.277344-24.339844.324219-33.917969-.113281-.121094-.226563-.242187-.339844-.363281-9.542969-10.207032-25.675781-10.496094-35.492187-.554688-1.742188 1.765625-3.492188 3.527344-5.253907 5.289063zm0 0" fill="url(#y)"></path><path d="m473.300781 78.691406c.972657 1.097656 1.9375 2.199219 2.894531 3.304688 5.476563 6.308594 15.746094 4.253906 18.265626-3.707032 8.355468-26.445312 7.886718-46.660156-3.101563-57.648437 4.769531 4.769531-2.414063 20.878906-18.859375 44.976563-2.75 4.027343-2.433594 9.417968.800781 13.074218zm0 0" fill="url(#z)"></path><path d="m49.707031 422.304688c-.972656-1.101563-1.9375-2.203126-2.898437-3.308594-5.472656-6.304688-15.746094-4.253906-18.261719 3.710937-8.355469 26.441407-7.886719 46.660157 3.101563 57.648438-4.769532-4.769531 2.414062-20.878907 18.859374-44.976563 2.75-4.03125 2.433594-9.421875-.800781-13.074218zm0 0" fill="url(#A)"></path><path d="m430.003906 35.804688c1.105469.957031 2.207032 1.925781 3.308594 2.898437 3.652344 3.234375 9.042969 3.550781 13.074219.796875 24.097656-16.445312 40.207031-23.625 44.972656-18.859375-10.988281-10.984375-31.203125-11.457031-57.644531-3.097656-7.964844 2.515625-10.015625 12.785156-3.710938 18.261719zm0 0" fill="url(#B)"></path><path d="m93.003906 465.191406c-1.105468-.960937-2.207031-1.925781-3.304687-2.898437-3.65625-3.234375-9.046875-3.550781-13.078125-.800781-24.097656 16.445312-40.207032 23.628906-44.972656 18.859374 10.984374 10.988282 31.203124 11.457032 57.644531 3.101563 7.964843-2.515625 10.015625-12.789063 3.710937-18.261719zm0 0" fill="url(#A)"></path><path d="m472.765625 127.386719c4.363281-8.027344 8.242187-15.773438 11.609375-23.195313 2.25-4.960937 1.460938-10.769531-2.023438-14.957031-.941406-1.128906-1.886718-2.253906-2.839843-3.378906-5.859375-6.898438-16.640625-6.554688-22.089844.671875-4.375 5.808594-9.117187 11.917968-14.203125 18.304687-4.28125 5.371094-4.082031 13.035157.433594 18.210938 1.945312 2.226562 3.863281 4.460937 5.761718 6.707031 6.46875 7.65625 18.566407 6.445312 23.351563-2.363281zm0 0" fill="url(#C)"></path><path d="m426.144531 32.488281c-1.125-.953125-2.25-1.898437-3.378906-2.839843-4.1875-3.484376-9.996094-4.273438-14.957031-2.019532-7.421875 3.367188-15.167969 7.242188-23.195313 11.605469-8.808593 4.785156-10.019531 16.882813-2.359375 23.351563 2.242188 1.898437 4.476563 3.816406 6.707032 5.761718 5.175781 4.515625 12.835937 4.714844 18.210937.433594 6.382813-5.085938 12.492187-9.828125 18.300781-14.203125 7.226563-5.449219 7.570313-16.230469.671875-22.089844zm0 0" fill="url(#D)"></path><path d="m96.996094 468.617188c1.058594.898437 2.121094 1.789062 3.183594 2.675781 4.226562 3.519531 10.085937 4.3125 15.089843 2.042969 7.339844-3.335938 15.003907-7.167969 22.9375-11.472657 8.835938-4.792969 10.195313-16.992187 2.519531-23.480469-2.203124-1.863281-4.398437-3.746093-6.585937-5.652343-5.230469-4.566407-12.96875-4.765625-18.398437-.441407-6.300782 5.015626-12.332032 9.699219-18.070313 14.023438-7.296875 5.503906-7.648437 16.390625-.675781 22.304688zm0 0" fill="url(#E)"></path><path d="m50.136719 373.792969c-4.304688 7.933593-8.136719 15.59375-11.46875 22.9375-2.273438 5.003906-1.476563 10.863281 2.039062 15.089843.886719 1.0625 1.777344 2.125 2.675781 3.183594 5.914063 6.972656 16.800782 6.621094 22.304688-.675781 4.328125-5.738281 9.007812-11.769531 14.023438-18.070313 4.324218-5.429687 4.125-13.167968-.4375-18.398437-1.90625-2.1875-3.792969-4.382813-5.652344-6.585937-6.492188-7.675782-18.6875-6.316407-23.484375 2.519531zm0 0" fill="url(#F)"></path><path d="m407.753906 172.621094c1.578125 1.785156 3.144532 3.574218 4.699219 5.363281 8.171875 9.417969 23.097656 8.542969 30.140625-1.742187 4.40625-6.433594 8.585938-12.769532 12.535156-18.984376 4.445313-7.007812 3.78125-16.058593-1.5-22.457031-.9375-1.140625-1.886718-2.277343-2.835937-3.414062-7.648438-9.117188-21.648438-9.160157-29.3125-.0625-4.429688 5.253906-9.027344 10.640625-13.789063 16.144531-6.257812 7.226562-6.269531 17.992188.0625 25.152344zm0 0" fill="url(#G)"></path><path d="m364.53125 104.3125c5.503906-4.765625 10.890625-9.363281 16.144531-13.789062 9.097657-7.667969 9.054688-21.667969-.0625-29.3125-1.132812-.953126-2.273437-1.902344-3.410156-2.839844-6.402344-5.28125-15.453125-5.945313-22.457031-1.5-6.21875 3.945312-12.554688 8.128906-18.988282 12.535156-10.285156 7.042969-11.160156 21.96875-1.742187 30.140625 1.792969 1.554687 3.582031 3.121094 5.367187 4.699219 7.15625 6.332031 17.921876 6.320312 25.148438.066406zm0 0" fill="url(#H)"></path><path d="m158.484375 396.671875c-5.503906 4.765625-10.894531 9.367187-16.148437 13.796875-9.101563 7.667969-9.058594 21.671875.058593 29.320312 1.136719.949219 2.273438 1.894532 3.410157 2.835938 6.398437 5.28125 15.453124 5.941406 22.457031 1.496094 6.21875-3.949219 12.558593-8.128906 18.992187-12.535156 10.285156-7.042969 11.15625-21.964844 1.746094-30.132813-1.796875-1.558594-3.59375-3.132813-5.386719-4.71875-7.152343-6.324219-17.90625-6.308594-25.128906-.0625zm0 0" fill="url(#I)"></path><path d="m115.265625 328.386719c-1.585937-1.792969-3.160156-3.585938-4.71875-5.382813-8.167969-9.414062-23.089844-8.542968-30.128906 1.742188-4.410157 6.4375-8.59375 12.773437-12.539063 18.992187-4.445312 7.007813-3.785156 16.058594 1.496094 22.457031.941406 1.136719 1.886719 2.273438 2.835938 3.410157 7.648437 9.117187 21.652343 9.164062 29.320312.0625 4.429688-5.257813 9.03125-10.644531 13.796875-16.152344 6.246094-7.21875 6.261719-17.976563-.0625-25.128906zm0 0" fill="url(#J)"></path><path d="m203.691406 356.3125c-4.699218 4.316406-9.347656 8.550781-13.9375 12.695312-9.976562 9.007813-9.738281 24.683594.433594 33.472657 1.214844 1.050781 2.433594 2.097656 3.652344 3.136719 8.019531 6.839843 19.714844 7.191406 28.070312.773437 5.101563-3.917969 10.242188-7.949219 15.414063-12.101563 10.703125-8.585937 11.132812-24.695312.984375-33.929687-1.480469-1.351563-2.96875-2.710937-4.453125-4.074219-8.523438-7.832031-21.636719-7.804687-30.164063.027344zm0 0" fill="url(#K)"></path><path d="m117.710938 274.675781c-4.152344 5.171875-8.1875 10.3125-12.101563 15.414063-6.417969 8.355468-6.066406 20.050781.773437 28.070312 1.039063 1.21875 2.085938 2.4375 3.136719 3.652344 8.789063 10.171875 24.464844 10.410156 33.472657.433594 4.144531-4.589844 8.378906-9.238282 12.695312-13.9375 7.832031-8.527344 7.859375-21.636719.027344-30.164063-1.367188-1.488281-2.722656-2.972656-4.074219-4.457031-9.234375-10.144531-25.34375-9.714844-33.929687.988281zm0 0" fill="url(#L)"></path><path d="m332.828125 98.519531c-1.21875-1.054687-2.441406-2.101562-3.664063-3.144531-8.015624-6.839844-19.710937-7.1875-28.070312-.773438-5.097656 3.914063-10.234375 7.949219-15.40625 12.097657-10.707031 8.589843-11.136719 24.703125-.984375 33.941406 1.480469 1.34375 2.960937 2.699219 4.441406 4.058594 8.53125 7.839843 21.644531 7.8125 30.175781-.023438 4.703126-4.316406 9.351563-8.550781 13.941407-12.695312 9.96875-9.003907 9.730469-24.675781-.433594-33.460938zm0 0" fill="url(#M)"></path><path d="m405.300781 226.3125c4.148438-5.171875 8.183594-10.308594 12.097657-15.40625 6.414062-8.359375 6.066406-20.054688-.773438-28.070312-1.042969-1.222657-2.089844-2.441407-3.144531-3.664063-8.785157-10.164063-24.457031-10.402344-33.460938-.429687-4.144531 4.589843-8.378906 9.238281-12.695312 13.9375-7.835938 8.53125-7.863281 21.648437-.027344 30.175781 1.363281 1.480469 2.714844 2.960937 4.0625 4.441406 9.238281 10.152344 25.351563 9.722656 33.941406-.984375zm0 0" fill="url(#N)"></path><path d="m285.226562 141.117188c-1.308593-1.191407-2.617187-2.378907-3.925781-3.558594-9.054687-8.183594-22.824219-8.304688-31.980469-.230469-3.144531 2.773437-6.292968 5.585937-9.449218 8.429687-10.355469 9.347657-10.621094 25.503907-.585938 35.1875 1.308594 1.261719 2.617188 2.527344 3.929688 3.796876 9.308594 9.011718 24.085937 9.03125 33.425781.054687 2.980469-2.863281 5.945313-5.699219 8.894531-8.511719 10.09375-9.613281 9.996094-25.78125-.308594-35.167968zm0 0" fill="url(#O)"></path><path d="m237.78125 359.878906c1.308594 1.191406 2.613281 2.378906 3.921875 3.558594 9.058594 8.179688 22.828125 8.304688 31.980469.230469 3.148437-2.773438 6.296875-5.585938 9.453125-8.433594 10.351562-9.347656 10.621093-25.5.582031-35.1875-1.304688-1.261719-2.617188-2.523437-3.925781-3.796875-9.308594-9.007812-24.089844-9.03125-33.429688-.050781-2.976562 2.859375-5.941406 5.699219-8.894531 8.507812-10.09375 9.613281-9.992188 25.785157.3125 35.171875zm0 0" fill="url(#P)"></path><path d="m327.257812 268.785156c1.269532 1.3125 2.535157 2.621094 3.796876 3.925782 9.683593 10.039062 25.839843 9.773437 35.1875-.582032 2.847656-3.15625 5.65625-6.304687 8.429687-9.449218 8.074219-9.15625 7.953125-22.925782-.226563-31.980469-1.183593-1.308594-2.367187-2.617188-3.5625-3.925781-9.386718-10.304688-25.554687-10.402344-35.167968-.3125-2.808594 2.953124-5.648438 5.917968-8.507813 8.894531-8.980469 9.34375-8.957031 24.121093.050781 33.429687zm0 0" fill="url(#Q)"></path><path d="m195.75 232.207031c-1.269531-1.3125-2.535156-2.621093-3.796875-3.925781-9.6875-10.039062-25.839844-9.769531-35.1875.585938-2.847656 3.152343-5.65625 6.304687-8.433594 9.449218-8.070312 9.152344-7.949219 22.921875.230469 31.980469 1.183594 1.304687 2.367188 2.613281 3.5625 3.921875 9.386719 10.304688 25.554688 10.40625 35.167969.3125 2.808593-2.949219 5.648437-5.914062 8.507812-8.894531 8.980469-9.339844 8.957031-24.117188-.050781-33.429688zm0 0" fill="url(#R)"></path><path d="m235.828125 224.820312c2.078125-2.078124 4.152344-4.148437 6.222656-6.207031 9.792969-9.730469 9.710938-25.605469-.210937-35.199219-1.277344-1.238281-2.554688-2.46875-3.828125-3.695312-9.585938-9.242188-24.808594-9.195312-34.292969.144531-2.152344 2.117188-4.300781 4.253907-6.449219 6.402344-2.148437 2.148437-4.28125 4.296875-6.398437 6.445313-9.34375 9.488281-9.386719 24.710937-.148438 34.296874 1.226563 1.273438 2.460938 2.546876 3.695313 3.828126 9.59375 9.921874 25.46875 10 35.199219.210937 2.0625-2.070313 4.128906-4.148437 6.210937-6.226563zm0 0" fill="url(#S)"></path><path d="m287.179688 276.175781c-2.078126 2.078125-4.15625 4.148438-6.226563 6.207031-9.789063 9.730469-9.710937 25.605469.214844 35.199219 1.277343 1.234375 2.550781 2.46875 3.828125 3.695313 9.585937 9.238281 24.804687 9.195312 34.292968-.148438 2.152344-2.117187 4.300782-4.25 6.449219-6.398437 2.148438-2.148438 4.28125-4.296875 6.398438-6.445313 9.34375-9.488281 9.386719-24.710937.144531-34.296875-1.226562-1.273437-2.457031-2.546875-3.691406-3.828125-9.59375-9.921875-25.46875-10-35.199219-.210937-2.0625 2.070312-4.132813 4.144531-6.210937 6.226562zm0 0" fill="url(#T)"></path><path d="m450.554688 36.695312c-5.699219 3.777344-6.402344 11.839844-1.488282 16.601563 1.625 1.578125 3.246094 3.171875 4.855469 4.78125s3.203125 3.230469 4.78125 4.855469c4.761719 4.910156 12.824219 4.214844 16.601563-1.488282 14.445312-21.785156 20.542968-36.316406 16.054687-40.804687s-19.019531 1.609375-40.804687 16.054687zm0 0" fill="url(#U)"></path><path d="m72.453125 464.300781c5.699219-3.78125 6.398437-11.84375 1.488281-16.609375-1.625-1.574218-3.246094-3.167968-4.855468-4.777344-1.609376-1.609374-3.203126-3.226562-4.777344-4.855468-4.765625-4.910156-12.828125-4.210938-16.609375 1.492187-14.441407 21.78125-20.539063 36.3125-16.050781 40.800781 4.484374 4.488282 19.019531-1.609374 40.804687-16.050781zm0 0" fill="url(#V)"></path><path d="m105.777344 406.222656c-2.476563-2.476562-4.921875-4.96875-7.335938-7.472656-6.027344-6.25-16.1875-5.730469-21.5625 1.085938-5.242187 6.644531-10.09375 12.976562-14.53125 18.960937-4.15625 5.605469-3.6875 13.410156 1.15625 18.433594 1.839844 1.90625 3.699219 3.800781 5.582032 5.683593 1.882812 1.882813 3.777343 3.742188 5.683593 5.582032 5.023438 4.847656 12.828125 5.316406 18.433594 1.160156 5.984375-4.4375 12.316406-9.292969 18.960937-14.53125 6.816407-5.378906 7.335938-15.539062 1.085938-21.566406-2.503906-2.414063-4.996094-4.859375-7.472656-7.335938zm0 0" fill="url(#W)"></path><path d="m417.230469 94.769531c2.511719 2.511719 4.992187 5.039063 7.4375 7.578125 5.972656 6.195313 16.039062 5.679688 21.371093-1.074218 5.304688-6.726563 10.214844-13.128907 14.699219-19.179688 4.109375-5.546875 3.648438-13.269531-1.148437-18.238281-1.867188-1.9375-3.753906-3.863281-5.667969-5.777344s-3.839844-3.804687-5.777344-5.671875c-4.96875-4.792969-12.691406-5.253906-18.238281-1.144531-6.050781 4.484375-12.453125 9.390625-19.179688 14.699219-6.753906 5.328124-7.269531 15.398437-1.074218 21.371093 2.539062 2.449219 5.066406 4.925781 7.578125 7.4375zm0 0" fill="url(#X)"></path><path d="m112.542969 356.742188c-5.011719 5.820312-9.835938 11.503906-14.460938 17.035156-6.269531 7.496094-5.878906 18.519531.910157 25.546875 2.238281 2.3125 4.496093 4.609375 6.785156 6.898437 2.289062 2.289063 4.589844 4.550782 6.898437 6.785156 7.027344 6.792969 18.050781 7.183594 25.546875.914063 5.53125-4.625 11.214844-9.453125 17.035156-14.464844 8.523438-7.339843 8.914063-20.394531.847657-28.234375-2.582031-2.507812-5.15625-5.042968-7.71875-7.609375-2.566407-2.566406-5.101563-5.136719-7.609375-7.71875-7.839844-8.066406-20.894532-7.675781-28.234375.847657zm0 0" fill="url(#Y)"></path><path d="m410.46875 144.246094c5.011719-5.816406 9.832031-11.5 14.457031-17.027344 6.269531-7.5 5.878907-18.523438-.914062-25.550781-2.234375-2.3125-4.496094-4.609375-6.78125-6.898438-2.289063-2.285156-4.585938-4.546875-6.898438-6.78125-7.027343-6.792969-18.050781-7.183593-25.546875-.910156-5.53125 4.621094-11.210937 9.441406-17.03125 14.453125-8.527344 7.339844-8.914062 20.402344-.84375 28.246094 2.578125 2.507812 5.148438 5.042968 7.710938 7.605468 2.5625 2.558594 5.097656 5.132813 7.601562 7.710938 7.84375 8.066406 20.90625 7.679688 28.246094-.847656zm0 0" fill="url(#Z)"></path><path d="m193.964844 318.035156c-2.679688-2.675781-5.335938-5.355468-7.96875-8.035156-8.96875-9.125-23.734375-8.871094-32.375.5625-4.597656 5.019531-9.09375 9.972656-13.492188 14.859375-7.828125 8.703125-7.578125 22.007813.582032 30.40625 2.53125 2.601563 5.089843 5.199219 7.675781 7.785156 2.585937 2.585938 5.183593 5.144531 7.785156 7.675781 8.398437 8.160157 21.699219 8.410157 30.40625.578126 4.886719-4.394532 9.839844-8.894532 14.855469-13.488282 9.433594-8.640625 9.691406-23.40625.566406-32.375-2.679688-2.632812-5.359375-5.289062-8.035156-7.96875zm0 0" fill="url(#aa)"></path><path d="m329.042969 182.957031c2.675781 2.675781 5.332031 5.351563 7.960937 8.03125 8.972656 9.125 23.746094 8.871094 32.390625-.566406 4.59375-5.015625 9.09375-9.972656 13.488281-14.859375 7.828126-8.699219 7.574219-21.996094-.582031-30.390625-2.53125-2.605469-5.089843-5.203125-7.679687-7.792969s-5.1875-5.148437-7.792969-7.679687c-8.394531-8.15625-21.691406-8.40625-30.390625-.582031-4.886719 4.398437-9.839844 8.894531-14.859375 13.488281-9.4375 8.644531-9.695313 23.417969-.566406 32.390625 2.679687 2.632812 5.355469 5.285156 8.03125 7.960937zm0 0" fill="url(#ab)"></path><path d="m237.433594 274.570312c-2.746094-2.746093-5.472656-5.480468-8.1875-8.210937-9.515625-9.578125-25.054688-9.460937-34.402344.277344-3.140625 3.269531-6.25 6.523437-9.328125 9.761719-8.917969 9.378906-8.804687 24.148437.265625 33.382812 2.703125 2.753906 5.433594 5.503906 8.179688 8.253906 2.75 2.75 5.503906 5.480469 8.257812 8.183594 9.234375 9.070312 24.003906 9.183594 33.382812.265625 3.238282-3.078125 6.492188-6.1875 9.761719-9.328125 9.738281-9.347656 9.855469-24.886719.277344-34.402344-2.730469-2.710937-5.464844-5.441406-8.207031-8.183594zm0 0" fill="url(#ac)"></path><path d="m328.164062 234.359375c3.140626-3.269531 6.25-6.527344 9.324219-9.761719 8.921875-9.382812 8.808594-24.152344-.265625-33.386718-2.703125-2.753907-5.429687-5.503907-8.179687-8.253907s-5.5-5.476562-8.253907-8.179687c-9.234374-9.074219-24.003906-9.183594-33.386718-.265625-3.234375 3.078125-6.488282 6.183593-9.757813 9.324219-9.742187 9.351562-9.855469 24.886718-.28125 34.402343 2.730469 2.714844 5.46875 5.445313 8.210938 8.1875 2.746093 2.742188 5.472656 5.480469 8.1875 8.210938 9.515625 9.574219 25.054687 9.460937 34.402343-.277344zm0 0" fill="url(#ad)"></path><path d="m245.769531 282.878906c9.589844 9.53125 25.082031 9.539063 34.675781.011719 2.238282-2.226563 4.484376-4.464844 6.734376-6.714844s4.488281-4.496093 6.714843-6.738281c9.53125-9.59375 9.523438-25.085938-.007812-34.675781-2.753907-2.773438-5.523438-5.550781-8.3125-8.335938-2.785157-2.785156-5.5625-5.558593-8.335938-8.3125-9.589843-9.53125-25.082031-9.539062-34.675781-.007812-2.242188 2.226562-4.484375 4.464843-6.734375 6.714843s-4.492187 4.496094-6.71875 6.738282c-9.527344 9.589844-9.519531 25.082031.011719 34.671875 2.753906 2.773437 5.523437 5.550781 8.3125 8.339843 2.785156 2.785157 5.5625 5.554688 8.335937 8.308594zm0 0" fill="url(#ae)"></path><path d="m43.007812 502.261719c2.6875-2.691407 6.347657-4.1875 10.152344-4.152344l1.582032.015625c3.804687.035156 7.464843-1.464844 10.152343-4.152344l4.582031-4.582031-6.800781-6.796875-33.265625-33.269531-6.800781-6.796875-4.578125 4.578125c-2.082031 2.082031-3.4375 4.746093-3.933594 7.605469l.007813.039062v45.808594l1.703125 1.703125c7.511718 7.511719 19.6875 7.511719 27.199218 0zm0 0" fill="url(#ag)"></path><path d="m230.824219 435.132812c.121093.089844.242187.179688.363281.269532 7.621094 5.667968 17.957031 5.953125 25.839844.664062.25-.167968.5-.339844.746094-.507812 0 0-.464844-364.691406-.726563-364.511719-1.855469 1.292969-3.714844 2.597656-5.574219 3.925781-10.015625 7.148438-12.136718 20.597656-5.882812 30.285156-.269532.21875-.542969.433594-.816406.65625-.296876-.273437-.597657-.539062-.910157-.800781-.125-.101562-.25-.207031-.371093-.308593-8.886719-7.363282-21.773438-7.40625-30.652344-.035157-2.695313 2.238281-5.390625 4.507813-8.082032 6.8125-9.691406 8.289063-11 22.457031-3.773437 32.367188-.125.117187-.25.238281-.378906.355469-9.59375-8.039063-23.839844-7.65625-32.886719 1.195312-1.882812 1.847656-3.761719 3.707031-5.636719 5.578125-1.875 1.875-3.734375 3.753906-5.578125 5.640625-8.855468 9.042969-9.234375 23.289062-1.195312 32.882812-.121094.128907-.238282.253907-.355469.378907-9.910156-7.226563-24.078125-5.917969-32.371094 3.773437-2.300781 2.691406-4.570312 5.386719-6.808593 8.082032-7.371094 8.878906-7.332032 21.765624.035156 30.652343.101562.121094.207031.246094.308594.371094.257812.3125.527343.613281.800781.910156-.222657.273438-.4375.542969-.660157.816407-9.683593-6.257813-23.132812-4.132813-30.28125 5.878906-3.457031 4.847656-6.808593 9.683594-10.042968 14.507812-5.292969 7.882813-5.007813 18.21875.660156 25.839844.089844.121094.179688.242188.269531.363281.816407 1.09375 1.710938 2.089844 2.667969 2.984375-.382812.566406-.773438 1.136719-1.152344 1.699219-8.816406-4.890625-20.632812-2.203125-26 7.417969-3.65625 6.558594-7.085937 13.0625-10.285156 19.492187-3.117188 6.273438-2.605469 13.757813 1.417969 19.496094.078125.109375.152343.21875.230469.324219 1.195312 1.707031 2.597656 3.140625 4.144531 4.308594-.449219.859374-.882813 1.710937-1.320313 2.566406-7.152344-3.457032-16.476562-.539063-19.625 7.742187-3.417968 8.992188-6.308594 17.773438-8.648437 26.28125-1.152344 4.195313-.320313 8.683594 2.214843 12.21875 1.320313 1.84375 2.964844 3.226563 4.769532 4.210938-.625 1.964843-1.210938 3.90625-1.769532 5.832031-5.332031-.417969-10.789062 3.148438-11.5 9.410156-3.621093 31.808594 2.464844 58.027344 19.636719 75.195313 17.167969 17.171875 43.386719 23.257812 75.195313 19.636719 6.261718-.710938 9.824218-6.167969 9.410156-11.5 1.925781-.558594 3.867188-1.144532 5.832031-1.769532.984375 1.804688 2.367188 3.449219 4.210938 4.769532 3.535156 2.535156 8.023437 3.367187 12.214843 2.214843 8.511719-2.339843 17.289063-5.230469 26.285157-8.648437 8.28125-3.148438 11.199219-12.472656 7.742187-19.625.851563-.4375 1.707032-.871094 2.5625-1.320313 1.171875 1.546875 2.605469 2.949219 4.308594 4.144531.109375.078126.21875.152344.328125.230469 5.734375 4.023438 13.21875 4.535157 19.496094 1.417969 6.429687-3.199219 12.933593-6.628906 19.492187-10.285156 9.621094-5.367188 12.308594-17.183594 7.414063-26 .566406-.378906 1.136719-.769532 1.703125-1.152344.894531.957031 1.890625 1.847656 2.984375 2.664062zm-200.359375 43.949219c.019531.023438.039062.042969.058594.066407.015624.019531.03125.039062.050781.058593-.039063-.039062-.074219-.082031-.109375-.125zm2.328125 2.34375c.019531.019531.039062.035157.058593.050781.023438.019532.042969.039063.066407.0625-.042969-.039062-.085938-.074218-.125-.113281zm0 0" fill="url(#ah)"></path><path d="m31.558594 480.265625s162.648437-226.078125 435.660156-226.097656c10.015625 0 15.746094 12.070312 9.199219 19.324219-65.617188 72.667968-311.835938 326.847656-444.859375 206.773437zm0 0" fill="url(#ai)"></path><path d="m476.417969 273.492188c2.96875-3.289063 3.394531-7.558594 2.058593-11.253907-164.820312 14.195313-446.917968 218.027344-446.917968 218.027344 133.023437 120.074219 379.242187-134.105469 444.859375-206.773437zm0 0" fill="url(#aj)"></path><path d="m476.417969 273.492188c4.292969-4.757813 3.285156-11.566407-.726563-15.703126-2.128906 1.996094-4.28125 4.027344-6.480468 6.125-242.46875 231.265626-437.652344 216.351563-437.652344 216.351563 133.023437 120.074219 379.242187-134.105469 444.859375-206.773437zm0 0" fill="url(#ak)"></path><path d="m31.734375 480.441406s226.078125-162.648437 226.097656-435.65625c0-10.019531-12.070312-15.75-19.324219-9.203125-72.667968 65.617188-326.847656 311.835938-206.773437 444.859375zm0 0" fill="url(#al)"></path><path d="m238.507812 35.585938c3.289063-2.96875 7.558594-3.398438 11.253907-2.0625-14.191407 164.820312-218.027344 446.917968-218.027344 446.917968-120.070313-133.023437 134.105469-379.242187 206.773437-444.855468zm0 0" fill="url(#am)"></path><path d="m238.507812 35.585938c4.757813-4.296876 11.566407-3.289063 15.703126.722656-1.996094 2.128906-4.027344 4.28125-6.125 6.480468-231.265626 242.46875-216.351563 437.652344-216.351563 437.652344-120.070313-133.023437 134.105469-379.242187 206.773437-444.855468zm0 0" fill="url(#an)"></path></svg>